<?xml version="1.0" encoding="UTF-8"?>
<svg width="44px" height="42px" viewBox="0 0 44 42" version="1.1" xmlns="http://www.w3.org/2000/svg" xmlns:xlink="http://www.w3.org/1999/xlink">
    <title>_005-swimming-pool-2@3x</title>
    <g id="Page-1" stroke="none" stroke-width="1" fill="none" fill-rule="evenodd">
        <g id="_005-swimming-pool-2" fill="#EAC277" fill-rule="nonzero">
            <g id="Group_31" transform="translate(0.000000, 11.460000)">
                <g id="Group_30">
                    <rect id="Rectangle_57" x="0" y="0" width="43" height="1.424"></rect>
                </g>
            </g>
            <g id="Group_33" transform="translate(20.100000, 0.584000)">
                <g id="Group_32">
                    <path d="M4.267,0 C1.90910586,0.00220518652 -0.00179481348,1.91310586 -0.004,4.271 L-0.004,23.49 L1.42,23.49 L1.42,4.271 C1.42,2.69836917 2.69486917,1.4235 4.2675,1.4235 C5.84013083,1.4235 7.115,2.69836917 7.115,4.271 L7.115,11.971 L8.539,11.971 L8.539,4.271 C8.536794,1.91271579 6.62528466,0.00165390523 4.267,0 L4.267,0 Z" id="Path_165"></path>
                </g>
            </g>
            <g id="Group_35" transform="translate(20.834000, 15.811000)">
                <g id="Group_34">
                    <rect id="Rectangle_58" x="0" y="0" width="11.389" height="1.424"></rect>
                </g>
            </g>
            <g id="Group_37" transform="translate(31.611000, 0.584000)">
                <g id="Group_36">
                    <path d="M4.271,0 C1.91310586,0.00220518652 0.00220518652,1.91310586 0,4.271 L0,23.49 L1.424,23.49 L1.424,4.271 C1.424,2.69836917 2.69886917,1.4235 4.2715,1.4235 C5.84413083,1.4235 7.119,2.69836917 7.119,4.271 L7.119,11.971 L8.543,11.971 L8.543,4.271 C8.540794,1.91271579 6.62928466,0.00165390523 4.271,0 Z" id="Path_166"></path>
                </g>
            </g>
            <g id="Group_39" transform="translate(20.834000, 20.161000)">
                <g id="Group_38">
                    <rect id="Rectangle_59" x="0" y="0" width="11.389" height="1.424"></rect>
                </g>
            </g>
            <g id="Group_41" transform="translate(0.279000, 38.618000)">
                <g id="Group_40">
                    <path d="M36.957,0.917 C35.8445187,1.75066708 34.3154813,1.75066708 33.203,0.917 C31.5795639,-0.306017412 29.3424361,-0.306017412 27.719,0.917 C26.6062039,1.75083384 25.0767961,1.75083384 23.964,0.917 C22.3405639,-0.306017412 20.1034361,-0.306017412 18.48,0.917 C17.3675187,1.75066708 15.8384813,1.75066708 14.726,0.917 C13.1025639,-0.306017412 10.8654361,-0.306017412 9.242,0.917 C8.12920395,1.75083384 6.59979605,1.75083384 5.487,0.917 C3.86336136,-0.306519718 1.62563864,-0.306519718 0.002,0.917 L0.871,2.049 C1.9808119,1.21399396 3.5091881,1.21399396 4.619,2.049 C6.24629629,3.26933334 8.48370371,3.26933334 10.111,2.049 C11.2205875,1.21332287 12.7494125,1.21332287 13.859,2.049 C15.4857591,3.26983368 17.7232409,3.26983368 19.35,2.049 C20.4595875,1.21332287 21.9884125,1.21332287 23.098,2.049 C24.7249815,3.26916667 26.9620185,3.26916667 28.589,2.049 C29.6984751,1.21298687 31.2275249,1.21298687 32.337,2.049 C33.9629258,3.26900018 36.1990742,3.26900018 37.825,2.049 C38.9340475,1.2128167 40.4629525,1.2128167 41.572,2.049 L42.441,0.917 C40.8174516,-0.305681498 38.5805484,-0.305681498 36.957,0.917 L36.957,0.917 Z" id="Path_167"></path>
                </g>
            </g>
            <g id="Group_43" transform="translate(0.279000, 33.636000)">
                <g id="Group_42">
                    <path d="M36.957,0.917 C35.8445187,1.75066708 34.3154813,1.75066708 33.203,0.917 C31.5795639,-0.306017412 29.3424361,-0.306017412 27.719,0.917 C26.6062039,1.75083384 25.0767961,1.75083384 23.964,0.917 C22.3405639,-0.306017412 20.1034361,-0.306017412 18.48,0.917 C17.3675187,1.75066708 15.8384813,1.75066708 14.726,0.917 C13.1025639,-0.306017412 10.8654361,-0.306017412 9.242,0.917 C8.12920395,1.75083384 6.59979605,1.75083384 5.487,0.917 C3.86336136,-0.306519718 1.62563864,-0.306519718 0.002,0.917 L0.871,2.049 C1.9808119,1.21399396 3.5091881,1.21399396 4.619,2.049 C6.24629629,3.26933334 8.48370371,3.26933334 10.111,2.049 C11.2205875,1.21332287 12.7494125,1.21332287 13.859,2.049 C15.4857591,3.26983368 17.7232409,3.26983368 19.35,2.049 C20.4595875,1.21332287 21.9884125,1.21332287 23.098,2.049 C24.7249815,3.26916667 26.9620185,3.26916667 28.589,2.049 C29.6984751,1.21298687 31.2275249,1.21298687 32.337,2.049 C33.9629258,3.26900018 36.1990742,3.26900018 37.825,2.049 C38.9340475,1.2128167 40.4629525,1.2128167 41.572,2.049 L42.441,0.917 C40.8174516,-0.305681498 38.5805484,-0.305681498 36.957,0.917 L36.957,0.917 Z" id="Path_168"></path>
                </g>
            </g>
            <g id="Group_45" transform="translate(0.279000, 28.460000)">
                <g id="Group_44">
                    <path d="M36.957,0.917 C35.8445187,1.75066708 34.3154813,1.75066708 33.203,0.917 C31.5795639,-0.306017412 29.3424361,-0.306017412 27.719,0.917 C26.6062039,1.75083384 25.0767961,1.75083384 23.964,0.917 C22.3405639,-0.306017412 20.1034361,-0.306017412 18.48,0.917 C17.3675187,1.75066708 15.8384813,1.75066708 14.726,0.917 C13.1025639,-0.306017412 10.8654361,-0.306017412 9.242,0.917 C8.12920395,1.75083384 6.59979605,1.75083384 5.487,0.917 C3.86336136,-0.306519718 1.62563864,-0.306519718 0.002,0.917 L0.871,2.049 C1.9808119,1.21399396 3.5091881,1.21399396 4.619,2.049 C6.24629629,3.26933334 8.48370371,3.26933334 10.111,2.049 C11.2205875,1.21332287 12.7494125,1.21332287 13.859,2.049 C15.4857591,3.26983368 17.7232409,3.26983368 19.35,2.049 C20.4595875,1.21332287 21.9884125,1.21332287 23.098,2.049 C24.7249815,3.26916667 26.9620185,3.26916667 28.589,2.049 C29.6984751,1.21298687 31.2275249,1.21298687 32.337,2.049 C33.9629258,3.26900018 36.1990742,3.26900018 37.825,2.049 C38.9340475,1.2128167 40.4629525,1.2128167 41.572,2.049 L42.441,0.917 C40.8174516,-0.305681498 38.5805484,-0.305681498 36.957,0.917 L36.957,0.917 Z" id="Path_169"></path>
                </g>
            </g>
            <g id="Group_47" transform="translate(0.279000, 23.380000)">
                <g id="Group_46">
                    <path d="M36.957,0.917 C35.8445187,1.75066708 34.3154813,1.75066708 33.203,0.917 C31.5795639,-0.306017412 29.3424361,-0.306017412 27.719,0.917 C26.6060932,1.7505012 25.0769068,1.7505012 23.964,0.917 C22.3405639,-0.306017412 20.1034361,-0.306017412 18.48,0.917 C17.3677407,1.75133335 15.8382593,1.75133335 14.726,0.917 C13.1025639,-0.306017412 10.8654361,-0.306017412 9.242,0.917 C8.12931486,1.75116677 6.59968514,1.75116677 5.487,0.917 C3.86336136,-0.306519718 1.62563864,-0.306519718 0.002,0.917 L0.871,2.049 C1.9808119,1.21399396 3.5091881,1.21399396 4.619,2.049 C6.24629629,3.26933334 8.48370371,3.26933334 10.111,2.049 C11.2205875,1.21332287 12.7494125,1.21332287 13.859,2.049 C15.4857591,3.26983368 17.7232409,3.26983368 19.35,2.049 C20.4595875,1.21332287 21.9884125,1.21332287 23.098,2.049 C24.7249815,3.26916667 26.9620185,3.26916667 28.589,2.049 C29.6984751,1.21298687 31.2275249,1.21298687 32.337,2.049 C33.9629258,3.26900018 36.1990742,3.26900018 37.825,2.049 C38.9340475,1.2128167 40.4629525,1.2128167 41.572,2.049 L42.441,0.917 C40.8174516,-0.305681498 38.5805484,-0.305681498 36.957,0.917 L36.957,0.917 Z" id="Path_170"></path>
                </g>
            </g>
        </g>
    </g>
</svg>