<?xml version="1.0" encoding="UTF-8"?>
<svg width="75px" height="74px" viewBox="0 0 75 74" version="1.1" xmlns="http://www.w3.org/2000/svg" xmlns:xlink="http://www.w3.org/1999/xlink">
    <title>_007-user@3x</title>
    <g id="Page-1" stroke="none" stroke-width="1" fill="none" fill-rule="evenodd">
        <g id="_007-user" transform="translate(0.501000, 0.000000)" fill="#0A4479" fill-rule="nonzero">
            <g id="Group_90" transform="translate(19.552702, 39.976190)">
                <g id="Group_89">
                    <path d="M3.35204082,0 C1.50166733,0.00239437815 0.00218914574,1.64244864 0,3.66629464 L2.23469388,3.66629464 C2.23469388,2.99134844 2.73494714,2.44419643 3.35204082,2.44419643 C3.96913449,2.44419643 4.46938776,2.99134844 4.46938776,3.66629464 L6.70408163,3.66629464 C6.70189249,1.64244864 5.20241431,0.00239437815 3.35204082,0 Z" id="Path_211"></path>
                </g>
            </g>
            <g id="Group_92" transform="translate(28.243179, 39.976190)">
                <g id="Group_91">
                    <path d="M3.35204082,0 C1.50166733,0.00239437815 0.00218914574,1.64244864 0,3.66629464 L2.23469388,3.66629464 C2.23469388,2.99134844 2.73494714,2.44419643 3.35204082,2.44419643 C3.96913449,2.44419643 4.46938776,2.99134844 4.46938776,3.66629464 L6.70408163,3.66629464 C6.70189249,1.64244864 5.20241431,0.00239437815 3.35204082,0 L3.35204082,0 Z" id="Path_212"></path>
                </g>
            </g>
            <g id="Group_94" transform="translate(0.433655, 25.202381)">
                <g id="Group_93">
                    <path d="M37.0431548,29.1266741 L35.8208554,29.1266741 C38.1666128,27.0717196 39.722693,24.2661422 40.222131,21.1912736 C42.6086697,20.7461948 44.3386543,18.6671767 44.3386543,16.24422 C44.3386543,13.8212632 42.6086697,11.7422452 40.222131,11.2971664 C39.1761978,4.78671517 33.5473954,-0.00183198674 26.9404762,-0.00183198674 C20.333557,-0.00183198674 14.7047545,4.78671517 13.6588214,11.2971664 C11.2722827,11.7422452 9.54229809,13.8212632 9.54229809,16.24422 C9.54229809,18.6671767 11.2722827,20.7461948 13.6588214,21.1912736 C14.158419,24.2660871 15.7144711,27.0716139 18.060097,29.1266741 L16.8377976,29.1266741 C7.54286982,29.1371008 0.010447765,36.6543365 0,45.9305246 C0,46.5492252 0.502569252,47.0507812 1.12251984,47.0507812 L52.7584325,47.0507812 C53.3783831,47.0507812 53.8809524,46.5492252 53.8809524,45.9305246 C53.8705046,36.6543365 46.3380826,29.1371008 37.0431548,29.1266741 Z M40.4107143,13.6770895 C41.4335414,14.1223076 42.094788,15.1300883 42.094788,16.2437221 C42.094788,17.3573559 41.4335414,18.3651366 40.4107143,18.8103547 L40.4107143,13.6770895 Z M13.4702381,18.8103547 C12.447411,18.3651366 11.7861644,17.3573559 11.7861644,16.2437221 C11.7861644,15.1300883 12.447411,14.1223076 13.4702381,13.6770895 L13.4702381,18.8103547 Z M26.9404762,2.24051339 C33.1259792,2.24760016 38.1427114,7.24220102 38.1646768,13.4151984 C30.0635758,13.1304043 24.6944387,9.82440228 24.6944387,6.72154018 C24.6944387,6.10283949 24.1918695,5.60128348 23.5719189,5.60128348 C22.9519683,5.60128348 22.449399,6.10283949 22.449399,6.72154018 C22.449399,9.52068824 19.5488078,11.8408643 15.7791367,12.252123 C16.3956352,6.5620008 21.2056298,2.24748388 26.9404762,2.24051339 Z M15.7152778,19.0443638 L15.7152778,14.5006027 C18.8995388,14.3475183 21.8365842,12.7422479 23.6806786,10.1470362 C26.0274934,13.2528857 31.5173638,15.4376352 38.1656746,15.6606907 L38.1656746,19.0463554 C38.1656746,25.2333622 33.139982,30.2489222 26.9404762,30.2489222 C20.7409704,30.2489222 15.7152778,25.2333622 15.7152778,19.0463554 L15.7152778,19.0443638 Z M33.6755952,31.3671875 L33.6755952,33.6077009 C33.6755952,37.319905 30.6601797,40.3292411 26.9404762,40.3292411 C23.2207727,40.3292411 20.2053571,37.319905 20.2053571,33.6077009 L20.2053571,31.3671875 L21.5723369,31.3671875 C24.9942823,32.8607765 28.8856723,32.8607765 32.3076177,31.3671875 L33.6755952,31.3671875 Z M2.28794489,44.8102679 C2.88325989,37.2283575 9.21728691,31.3761447 16.8377976,31.3671875 L17.9603175,31.3671875 L17.9603175,33.6077009 C17.9603175,38.5573064 21.9808715,42.5697545 26.9404762,42.5697545 C31.9000809,42.5697545 35.9206349,38.5573064 35.9206349,33.6077009 L35.9206349,31.3671875 L37.0431548,31.3671875 C44.6636655,31.3761447 50.9976925,37.2283575 51.5930075,44.8102679 L2.28794489,44.8102679 Z" id="Path_213"></path>
                </g>
            </g>
            <g id="Group_96" transform="translate(43.016988, 6.952381)">
                <g id="Group_95">
                    <path d="M22.5685621,9.22282993 L20.6587733,7.56915646 L20.6587733,1.11933333 C20.6587733,0.502239659 20.1449262,0.00198639456 19.5110637,0.00198639456 L14.9202252,0.00198639456 C14.2863626,0.00198639456 13.7725155,0.502239659 13.7725155,1.11933333 L13.7725155,1.61096599 L12.242236,0.283061224 C11.8071002,-0.0976693581 11.1470924,-0.0976693581 10.7119565,0.283061224 L0.382569876,9.22183673 C0.137456435,9.43391387 -0.00306055901,9.73786581 -0.00306055901,10.0571156 L-0.00306055901,18.9958912 C-0.00306055901,19.6129848 0.510786544,20.1132381 1.14464907,20.1132381 L21.8034224,20.1132381 C22.4372849,20.1132381 22.9511383,19.6129848 22.9511383,18.9958912 L22.9511383,10.0571156 C22.9522155,9.73851536 22.8129234,9.43475543 22.5685621,9.22282993 L22.5685621,9.22282993 Z M12.6248059,17.8785442 L10.3293866,17.8785442 L10.3293866,12.2928027 L12.6248059,12.2928027 L12.6248059,17.8785442 Z M20.6587733,17.8785442 L14.9202252,17.8785442 L14.9202252,11.1754558 C14.9202252,10.5583621 14.4063781,10.0581088 13.7725155,10.0581088 L9.18167702,10.0581088 C8.54781449,10.0581088 8.03396739,10.5583621 8.03396739,11.1754558 L8.03396739,17.8795374 L2.29541925,17.8795374 L2.29541925,10.5596735 L11.4770963,2.61409524 L14.1571258,4.93321088 C14.4947794,5.2258211 14.9774125,5.29821833 15.3898792,5.11812967 C15.8023458,4.93804101 16.0678102,4.53901402 16.0679348,4.09892517 L16.0679348,2.23668027 L18.363354,2.23668027 L18.363354,8.07270748 C18.3630467,8.39177556 18.5034879,8.69561065 18.7489845,8.9069932 L20.6587733,10.5596735 L20.6587733,17.8785442 Z" id="Path_214"></path>
                </g>
            </g>
            <g id="Group_98" transform="translate(36.064607, 0.000000)">
                <g id="Group_97">
                    <path d="M18.25,-1.98022275e-15 C8.17080332,-1.98022275e-15 0,7.97626038 0,17.8154762 C0,27.654692 8.17080332,35.6309524 18.25,35.6309524 C28.3291967,35.6309524 36.5,27.654692 36.5,17.8154762 C36.4882671,7.98100849 28.3243328,0.0114535137 18.25,-1.98022275e-15 Z M18.25,33.4040179 C9.4307029,33.4040179 2.28125,26.42479 2.28125,17.8154762 C2.28125,9.20616236 9.4307029,2.22693452 18.25,2.22693452 C27.0692971,2.22693452 34.21875,9.20616236 34.21875,17.8154762 C34.2092504,26.4209459 27.0653592,33.3947444 18.25,33.4040179 L18.25,33.4040179 Z" id="Path_215"></path>
                </g>
            </g>
            <g id="Group_100" transform="translate(43.016988, 45.190476)">
                <g id="Group_99">
                    <path d="M4.3452381,0 C2.58775334,0 1.00332185,1.05868327 0.330761555,2.68238747 C-0.341798743,4.30609166 0.0299613847,6.17505603 1.27269077,7.41778542 C2.51542016,8.66051481 4.38438453,9.03227493 6.00808872,8.35971464 C7.63179292,7.68715434 8.69047619,6.10272285 8.69047619,4.3452381 C8.69047619,1.94542936 6.74504683,0 4.3452381,0 Z M4.3452381,6.51785714 C3.14533373,6.51785714 2.17261905,5.54514246 2.17261905,4.3452381 C2.17261905,3.14533373 3.14533373,2.17261905 4.3452381,2.17261905 C5.54514246,2.17261905 6.51785714,3.14533373 6.51785714,4.3452381 C6.51679237,5.54470114 5.54470114,6.51679237 4.3452381,6.51785714 L4.3452381,6.51785714 Z" id="Path_216"></path>
                </g>
            </g>
            <g id="Group_102" transform="translate(52.576512, 37.369048)">
                <g id="Group_101">
                    <path d="M5.703125,0 C2.55337604,0 0,2.55337604 0,5.703125 C0,8.85287396 2.55337604,11.40625 5.703125,11.40625 C8.85287396,11.40625 11.40625,8.85287396 11.40625,5.703125 C11.4028971,2.55476589 8.85148411,0.00335288795 5.703125,0 L5.703125,0 Z M5.703125,9.125 C3.81327562,9.125 2.28125,7.59297438 2.28125,5.703125 C2.28125,3.81327562 3.81327562,2.28125 5.703125,2.28125 C7.59297438,2.28125 9.125,3.81327562 9.125,5.703125 C9.12276525,7.59204794 7.59204794,9.12276525 5.703125,9.125 L5.703125,9.125 Z" id="Path_217"></path>
                </g>
            </g>
            <g id="Group_104" transform="translate(23.028893, 46.928571)">
                <g id="Group_103">
                    <path d="M6.51785714,-1.18559131e-13 C6.51785714,1.29589672 5.54514246,2.34642857 4.3452381,2.34642857 C3.14533373,2.34642857 2.17261905,1.29589672 2.17261905,-1.18559131e-13 L0,-1.18559131e-13 C0,2.59179328 1.9454295,4.69285675 4.3452381,4.69285675 C6.74504669,4.69285675 8.69047619,2.59179328 8.69047619,-1.18559131e-13 L6.51785714,-1.18559131e-13 Z" id="Path_218"></path>
                </g>
            </g>
        </g>
    </g>
</svg>