<?xml version="1.0" encoding="UTF-8"?>
<svg width="43px" height="43px" viewBox="0 0 43 43" version="1.1" xmlns="http://www.w3.org/2000/svg" xmlns:xlink="http://www.w3.org/1999/xlink">
    <title>_010-education@3x</title>
    <g id="Page-1" stroke="none" stroke-width="1" fill="none" fill-rule="evenodd">
        <g id="_010-education" transform="translate(0.000000, 0.039000)" fill="#EAC277" fill-rule="nonzero">
            <path d="M38.173,0.575 L4.827,0.575 C2.163,0.575 0.003,2.451 0,4.762 L0,24.28 C0,26.591 2.162,28.465 4.827,28.467 L15.558,28.467 L18.015,33.9 C17.8706085,33.7573191 17.6713899,33.6843452 17.469,33.7 C14.8413907,33.826294 12.2358462,34.2431677 9.7,34.943 C7.41,35.643 6.249,36.543 6.249,37.59 C6.249,40.206 13.763,41.575 21.186,41.575 C27.875,41.575 33.586,40.498 35.405,38.895 C35.817096,38.5832237 36.0668597,38.1024286 36.085,37.586 C36.085,36.55 34.935,35.671 32.678,34.972 C30.1651179,34.2758588 27.5825448,33.8616409 24.978,33.737 C24.63962,33.6948826 24.3283843,33.9275368 24.273,34.264 C24.2697325,34.4265959 24.3326078,34.5835534 24.4472261,34.6989257 C24.5618443,34.814298 24.7183861,34.8782012 24.881,34.876 C31.624,35.309 34.766,36.752 34.766,37.59 L34.766,37.6 C34.7403357,37.7996738 34.6313417,37.9791505 34.466,38.094 C33.15,39.256 28.166,40.433 21.185,40.433 C17.853529,40.4768042 14.5275851,40.148436 11.269,39.454 C8.71,38.843 7.569,38.078 7.569,37.591 C7.569,36.741 10.746,35.28 17.569,34.844 C17.8988631,34.8452014 18.1693072,34.5827507 18.178,34.253 L20.056,38.407 C20.0717535,38.442285 20.091195,38.4758048 20.114,38.507 C20.36769,38.8193185 20.7486302,39.0006657 21.151,39.0006657 C21.5533698,39.0006657 21.93431,38.8193185 22.188,38.507 C22.2104578,38.47576 22.2295631,38.4422419 22.245,38.407 L26.738,28.466 L38.173,28.466 C40.837,28.466 42.997,26.59 43,24.279 L43,4.762 C43,2.451 40.838,0.578 38.173,0.575 Z M41.683,24.275 C41.5438861,26.0797407 39.9793061,27.4370473 38.173,27.32 L26.285,27.32 C26.0275561,27.3118638 25.7886325,27.4533472 25.672,27.683 L21.146,37.7 L16.62,27.687 C16.5030849,27.4577356 16.2642198,27.3166766 16.007,27.325 L4.827,27.325 C3.02069393,27.4420473 1.45611387,26.0847407 1.317,24.28 L1.317,4.762 C1.45611387,2.95725929 3.02069393,1.59995266 4.827,1.717 L38.173,1.717 C39.9793061,1.59995266 41.5438861,2.95725929 41.683,4.762 L41.683,24.275 Z" id="Path_182"></path>
            <g id="Group_49" transform="translate(13.341000, 6.552000)">
                <path d="M6.75,2.421 C6.62010894,2.36695679 6.47040046,2.39745296 6.372,2.498 L5.217,3.646 L2.663,1.098 C2.59758591,1.03004236 2.50732521,0.991642889 2.413,0.991642889 C2.31867479,0.991642889 2.22841409,1.03004236 2.163,1.098 L0.763,2.498 C0.695042356,2.56341409 0.656642889,2.65367479 0.656642889,2.748 C0.656642889,2.84232521 0.695042356,2.93258591 0.763,2.998 L3.318,5.546 L2.163,6.699 C2.05926839,6.79776195 2.02664125,6.94999247 2.08078589,7.08259159 C2.13493053,7.21519072 2.26478732,7.30107363 2.408,7.29903673 L6.608,7.29903673 C6.70107118,7.29980819 6.79056539,7.26319288 6.85637913,7.19737913 C6.92219288,7.13156539 6.95880819,7.04207118 6.958,6.949 L6.958,2.749 C6.96620709,2.60636742 6.88251624,2.4743934 6.75,2.421 L6.75,2.421 Z M6.263,6.593 L3.263,6.593 L4.068,5.788 C4.13595764,5.72258591 4.17435711,5.63232521 4.17435711,5.538 C4.17435711,5.44367479 4.13595764,5.35341409 4.068,5.288 L1.513,2.743 L2.413,1.843 L4.972,4.393 C5.03741409,4.46095764 5.12767479,4.49935711 5.222,4.49935711 C5.31632521,4.49935711 5.40658591,4.46095764 5.472,4.393 L6.263,3.593 L6.263,6.593 Z" id="Path_177"></path>
                <path d="M13.867,1.098 C13.8019526,1.03268124 13.7141601,0.995055899 13.622,0.992969877 L13.622,0.992969877 C13.5291523,0.991742631 13.4401224,1.02989832 13.377,1.098 L10.822,3.646 L9.667,2.493 C9.56823805,2.38926839 9.41600753,2.35664125 9.28340841,2.41078589 C9.15080928,2.46493053 9.06492637,2.59478732 9.06696327,2.738 L9.06696327,6.938 C9.06619181,7.03107118 9.10280712,7.12056539 9.16862087,7.18637913 C9.23443461,7.25219288 9.32392882,7.28880819 9.417,7.2880131 L13.617,7.2880131 C13.7100712,7.28880819 13.7995654,7.25219288 13.8653791,7.18637913 C13.9311929,7.12056539 13.9678082,7.03107118 13.967,6.938 C13.966104,6.8366311 13.9229762,6.74022777 13.848,6.672 L12.714,5.545 L15.267,2.993 C15.33344,2.9267681 15.3707832,2.83681335 15.3707832,2.743 C15.3707832,2.64918665 15.33344,2.5592319 15.267,2.493 L13.867,1.098 Z M11.977,5.298 C11.91056,5.3642319 11.8732168,5.45418665 11.8732168,5.548 C11.8732168,5.64181335 11.91056,5.7317681 11.977,5.798 L12.782,6.603 L9.767,6.603 L9.767,3.593 L10.572,4.398 C10.6370474,4.46331876 10.7248399,4.5009441 10.817,4.503 L10.817,4.503 C10.9123626,4.50442364 11.0036223,4.46426936 11.067,4.393 L13.622,1.838 L14.522,2.738 L11.977,5.298 Z" id="Path_178"></path>
                <path d="M6.617,9.394 L2.417,9.394 C2.27562131,9.39443547 2.14847233,9.48012283 2.095,9.611 C2.04095679,9.74089106 2.07145296,9.89059954 2.172,9.989 L3.32,11.144 L0.763,13.7 C0.695042356,13.7654141 0.656642889,13.8556748 0.656642889,13.95 C0.656642889,14.0443252 0.695042356,14.1345859 0.763,14.2 L2.163,15.6 C2.22774484,15.6657633 2.31572666,15.7034698 2.408,15.705 C2.50055403,15.7048056 2.58902889,15.6668878 2.653,15.6 L5.208,13.045 L6.363,14.194 C6.46176195,14.2977316 6.61399247,14.3303588 6.74659159,14.2762141 C6.87919072,14.2220695 6.96507363,14.0922127 6.963,13.949 L6.963,9.749 C6.96776101,9.65504269 6.93314734,9.56335224 6.86748374,9.49598063 C6.80182015,9.42860902 6.71104857,9.39165276 6.617,9.394 L6.617,9.394 Z M6.263,13.094 L5.463,12.294 C5.39758591,12.2260424 5.30732521,12.1876429 5.213,12.1876429 C5.11867479,12.1876429 5.02841409,12.2260424 4.963,12.294 L2.415,14.85 L1.515,13.95 L4.07,11.395 C4.13795764,11.3295859 4.17635711,11.2393252 4.17635711,11.145 C4.17635711,11.0506748 4.13795764,10.9604141 4.07,10.895 L3.263,10.094 L6.263,10.094 L6.263,13.094 Z" id="Path_179"></path>
                <path d="M12.715,11.144 L13.87,9.994 C13.9737316,9.89523805 14.0063588,9.74300753 13.9522141,9.61040841 C13.8980695,9.47780928 13.7682127,9.39192637 13.625,9.39396327 L9.425,9.39396327 C9.33192882,9.39319181 9.24243461,9.42980712 9.17662087,9.49562087 C9.11080712,9.56143461 9.07419181,9.65092882 9.0749869,9.744 L9.0749869,13.944 C9.07543547,14.0853787 9.16112283,14.2125277 9.292,14.266 C9.42189106,14.3200432 9.57159954,14.289547 9.67,14.189 L10.825,13.034 L13.37,15.594 C13.4358412,15.6574874 13.5235385,15.6932822 13.615,15.694 L13.615,15.694 C13.7070859,15.6965507 13.7959998,15.6602594 13.86,15.594 L15.26,14.194 C15.3279576,14.1285859 15.3663571,14.0383252 15.3663571,13.944 C15.3663571,13.8496748 15.3279576,13.7594141 15.26,13.694 L12.715,11.144 Z M13.615,14.844 L11.07,12.294 C11.0050122,12.2285934 10.9171826,12.1909521 10.825,12.189 L10.825,12.189 C10.7321773,12.1878684 10.6431962,12.2260032 10.58,12.294 L9.768,13.099 L9.768,10.099 L12.768,10.099 L11.963,10.904 C11.8950424,10.9694141 11.8566429,11.0596748 11.8566429,11.154 C11.8566429,11.2483252 11.8950424,11.3385859 11.963,11.404 L14.511,13.96 L13.615,14.844 Z" id="Path_180"></path>
            </g>
        </g>
    </g>
</svg>