<svg xmlns="http://www.w3.org/2000/svg" width="39.499" height="34.955" viewBox="0 0 39.499 34.955">
  <g id="download" transform="translate(37.999 -13.471) rotate(90)">
    <g id="Group_109" data-name="Group 109" transform="translate(0)">
      <path id="Path_247" data-name="Path 247" d="M31.837,16.266a.762.762,0,0,1-.7.47H22.8v19a.76.76,0,0,1-.76.76H9.882a.76.76,0,0,1-.76-.76v-19H.76a.76.76,0,0,1-.538-1.3L15.387.223a.762.762,0,0,1,1.076,0L31.672,15.437A.759.759,0,0,1,31.837,16.266Z" transform="translate(15)" fill="none" stroke="#e5be74" stroke-width="3"/>
    </g>
  </g>
</svg>
