<?xml version="1.0" standalone="no"?>
<!DOCTYPE svg PUBLIC "-//W3C//DTD SVG 1.1//EN" "http://www.w3.org/Graphics/SVG/1.1/DTD/svg11.dtd" >
<svg xmlns="http://www.w3.org/2000/svg" xmlns:xlink="http://www.w3.org/1999/xlink" version="1.1">
<metadata>
Created by FontForge 20170731 at Sun Oct  9 18:06:31 2016
 By Aleksey,,,
</metadata>
<defs>
<font id="OmbudsmanStencil" horiz-adv-x="453" >
  <font-face 
    font-family="Ombudsman Stencil"
    font-weight="400"
    font-stretch="normal"
    units-per-em="1000"
    panose-1="0 0 0 0 0 0 0 0 0 0"
    ascent="797"
    descent="-203"
    x-height="721"
    cap-height="721"
    bbox="-85 -229 598 874"
    underline-thickness="50"
    underline-position="-150"
    unicode-range="U+000D-2212"
  />
<missing-glyph horiz-adv-x="250" 
 />
    <glyph glyph-name=".notdef" horiz-adv-x="250" 
 />
    <glyph glyph-name=".null" horiz-adv-x="0" 
 />
    <glyph glyph-name="nonmarkingreturn" unicode="&#xd;" horiz-adv-x="250" 
 />
    <glyph glyph-name="NULL" horiz-adv-x="0" 
 />
    <glyph glyph-name="NULL" horiz-adv-x="0" 
 />
    <glyph glyph-name="space" unicode=" " horiz-adv-x="250" 
 />
    <glyph glyph-name="exclam" unicode="!" horiz-adv-x="202" 
d="M0 721h137l-34 -545h-68zM13 111h111v-111h-111v111z" />
    <glyph glyph-name="percent" unicode="%" horiz-adv-x="404" 
d="M135 717q20 -11 32 -30.5t12 -46.5v-65q0 -36 -24.5 -58t-65.5 -22q-13 0 -25 3l21 66h4q8 0 14.5 6.5t6.5 14.5v51v4l25 77v0zM45 504q-21 10 -33 28t-12 43v65q0 40 24 63.5t65 23.5q8 0 14 -1l12 -2l-21 -67q-2 1 -5 1q-8 0 -14 -6.5t-6 -15.5v-51v-5l-24 -76v0z
M302 216q20 -11 32 -30.5t12 -46.5v-65q0 -36 -24.5 -58t-65.5 -22q-13 0 -25 3l21 66h4q8 0 14.5 6.5t6.5 14.5v51v4l25 77v0zM212 3q-21 10 -33 28t-12 43v65q0 40 24 63.5t65 23.5q8 0 14 -1l12 -2l-21 -67q-2 1 -5 1q-8 0 -14 -6.5t-6 -15.5v-51v-5l-24 -76v0zM334 721
l-247 -721h-75l247 721h75z" />
    <glyph glyph-name="ampersand" unicode="&#x26;" 
d="M411 337h-60v-165q0 -42 -14 -74.5t-37.5 -55t-53.5 -34.5t-61 -14v111q21 3 38 18.5t17 48.5v165q-31 -1 -47.5 -1h-24.5h-12q-19 0 -32 -13.5t-13 -32.5v-118q0 -33 16.5 -48.5t37.5 -18.5v-111q-32 2 -61.5 14t-53 34.5t-37 55t-13.5 74.5l1 94q0 16 2 28.5t4 23.5
q5 19 14.5 32.5t26.5 27.5q-31 27 -41 58q-5 17 -6 39.5t-1 54.5q0 29 2 49.5t6.5 36t11.5 28t18 26.5q20 25 48 39.5t60 16.5v-111q-15 -4 -25 -16t-10 -29v-104q0 -14 12.5 -27.5t29.5 -13.5h258v-88zM202 570q0 17 -10 29t-26 16v111q33 -2 61 -16.5t48 -39.5
q10 -13 17 -25.5t11 -27.5t6 -35t2 -48h-109v36v0z" />
    <glyph glyph-name="parenleft" unicode="(" horiz-adv-x="221" 
d="M167 721q-31 -105 -43.5 -212t-12.5 -215q0 -96 15.5 -189t41.5 -184h-47q-29 40 -51.5 89t-38 101.5t-23.5 106t-8 103.5q0 49 8 102.5t24 106t38 101.5t51 90h46v0z" />
    <glyph glyph-name="parenright" unicode=")" horiz-adv-x="224" 
d="M1 721h46q28 -41 50.5 -90t38.5 -101.5t24 -106t8 -102.5q0 -50 -8 -103.5t-23.5 -106t-38 -101.5t-51.5 -89h-47q26 91 41.5 184t15.5 189q0 108 -12.5 215t-43.5 212z" />
    <glyph glyph-name="comma" unicode="," horiz-adv-x="199" 
d="M0 111h111v-109l-111 -80v189z" />
    <glyph glyph-name="period" unicode="." horiz-adv-x="185" 
d="M0 111h111v-111h-111v111z" />
    <glyph glyph-name="slash" unicode="/" horiz-adv-x="274" 
d="M134 727h88l-133 -733h-89z" />
    <glyph glyph-name="zero" unicode="0" horiz-adv-x="370" 
d="M266 684q47 -45 47 -115v-418q0 -70 -47 -115q-20 -19 -45.5 -29.5t-54.5 -12.5v112q17 3 26.5 15.5t9.5 29.5v418q0 18 -9.5 30.5t-26.5 15.5v111q58 -3 100 -42zM146 -6q-29 2 -54 12.5t-45 29.5q-47 44 -47 115v418q0 71 47 115q40 39 99 42v-111q-16 -3 -25.5 -15.5
t-9.5 -30.5v-418q0 -17 9.5 -29.5t25.5 -15.5v-112z" />
    <glyph glyph-name="one" unicode="1" horiz-adv-x="283" 
d="M105 721h108v-721h-111v600l-102 -75v118z" />
    <glyph glyph-name="two" unicode="2" horiz-adv-x="361" 
d="M154 111h159v-111h-216zM74 0h-74v101l184 348q7 13 10.5 23.5t5 21t2 22t0.5 25.5t-0.5 27.5t-5.5 24.5q-7 19 -30 22v111q70 -3 110 -55q37 -49 37 -128q0 -21 -0.5 -37t-2 -29.5t-5.5 -25.5t-11 -26zM111 534h-111v33q0 31 11.5 59t31 49.5t46.5 35t57 15.5v-111
q-35 -6 -35 -46v-35z" />
    <glyph glyph-name="three" unicode="3" horiz-adv-x="378" 
d="M253 372q23 -14 34.5 -27t16.5 -30q7 -18 8 -42.5t1 -63.5q0 -35 -1.5 -58t-4.5 -39t-8.5 -27.5t-13.5 -23.5q-43 -63 -119 -67v111q36 8 36 52v102q0 19 -3 31.5t-11.5 19.5t-23.5 9.5t-39 2.5h-4v99h4q22 0 37 2t24 8t12.5 17t3.5 30v92q0 36 -31 44v112
q22 -2 39.5 -8.5t30 -14.5t20.5 -16l12 -12q10 -13 18 -25.5t12.5 -29.5t7 -41t2.5 -58q0 -35 -1.5 -58t-7.5 -38.5t-18 -27.5t-33 -25zM146 -6q-26 2 -50 11t-43 24q-53 42 -53 121v34h111v-29q0 -42 35 -50v-111zM111 534h-111v37q0 31 12 58.5t32 48.5t47.5 34t59.5 14
v-110q-23 -2 -31.5 -17t-8.5 -29v-36z" />
    <glyph glyph-name="four" unicode="4" horiz-adv-x="422" 
d="M363 211v-105h-49v-106h-111v368h111v-157h49zM182 106h-182v101v0l148 514h117l-153 -510h70v-105z" />
    <glyph glyph-name="five" unicode="5" horiz-adv-x="382" 
d="M313 721v-105h-182v105h182zM148 -6q-59 3 -101 42q-47 44 -47 115v33h111v-29q0 -42 37 -50v-111zM191 466q54 0 88 -34q34 -36 34 -97v-184q0 -70 -47 -115q-41 -37 -98 -42v111q34 8 34 48v167q0 20 -12.5 33.5t-31.5 13.5q-23 0 -32.5 -12.5t-14.5 -21.5v-1l-2 -4
h-107v393h109v-283q17 13 37.5 20.5t42.5 7.5z" />
    <glyph glyph-name="six" unicode="6" horiz-adv-x="367" 
d="M290 381q7 -11 11.5 -23t7 -30.5t3.5 -46t1 -69.5q0 -34 -1 -56.5t-3.5 -38.5t-7.5 -27.5t-12 -24.5q-19 -32 -50.5 -50.5t-72.5 -20.5v112q14 3 25 14.5t11 30.5v132q0 23 -14.5 35t-31.5 12q-6 0 -9 -1l38 99q4 0 7.5 0.5t7.5 0.5q27 0 51.5 -13t38.5 -35zM146 -6
q-38 2 -69.5 20.5t-51.5 50.5q-8 13 -13 24.5t-7.5 27.5t-3.5 38.5t-1 56.5q0 33 1 55t3 37.5t6 28t9 27.5l135 361h123l-161 -414q-5 -10 -5 -24v-132q0 -19 10.5 -30.5t24.5 -14.5v-112z" />
    <glyph glyph-name="seven" unicode="7" horiz-adv-x="347" 
d="M313 721v-107l-1 -1l-174 -613h-116l209 721h82zM179 616h-179v105h210z" />
    <glyph glyph-name="eight" unicode="8" horiz-adv-x="367" 
d="M264 378q17 -14 26.5 -27.5t14.5 -32.5q5 -20 6.5 -47t1.5 -68q0 -33 -1.5 -55t-5 -37.5t-9 -27.5t-13.5 -24q-20 -29 -50 -46t-68 -19v112q16 3 26 15.5t10 28.5v140q0 19 -13.5 32.5t-32.5 13.5t-32 -13.5t-13 -32.5v-140q0 -16 10 -28.5t25 -15.5v-112q-38 2 -68 19
t-49 46q-8 12 -13.5 24t-9 27.5t-5 37.5t-1.5 55q0 41 1 68t6 47q5 19 14.5 32.5t26.5 27.5q-31 27 -41 58q-5 17 -6 39.5t-1 54.5q0 29 2 49.5t6.5 36t11.5 28t18 26.5q20 25 48 39.5t60 16.5v-111q-15 -4 -25 -16t-10 -29v-104q0 -19 13 -32t32 -13t32.5 13t13.5 32v104
q0 17 -10 29t-26 16v111q33 -2 61 -16.5t48 -39.5q10 -14 17.5 -26.5t12 -28t6.5 -36t2 -49.5q0 -32 -1.5 -54.5t-6.5 -39.5q-8 -31 -41 -58z" />
    <glyph glyph-name="nine" unicode="9" horiz-adv-x="364" 
d="M23 342q-8 11 -12.5 23t-6.5 30.5t-3 46t-1 69.5q0 34 1 56.5t3.5 38.5t7 27.5t12.5 24.5q19 32 50.5 50.5t71.5 20.5v-112q-14 -3 -24.5 -14.5t-10.5 -30.5v-132q0 -23 14 -35t31 -12q7 0 10 1l-39 -99q-3 0 -6.5 -0.5t-8.5 -0.5q-26 0 -50.5 13t-38.5 35zM166 729
q38 -2 70 -20.5t52 -50.5q8 -13 13 -24.5t7.5 -27.5t3.5 -38.5t1 -56.5q0 -33 -1 -55t-3.5 -37.5t-6 -28t-9.5 -27.5l-135 -361h-123l161 414q6 9 6 24v132q0 19 -11 30.5t-25 14.5v112z" />
    <glyph glyph-name="colon" unicode=":" horiz-adv-x="185" 
d="M0 111h111v-111h-111v111zM0 338h111v-111h-111v111z" />
    <glyph glyph-name="semicolon" unicode=";" horiz-adv-x="199" 
d="M0 338h111v-111h-111v111zM0 111h111v-109l-111 -80v189z" />
    <glyph glyph-name="equal" unicode="=" horiz-adv-x="577" 
d="M0 202h455v-89h-455v89zM0 402h455v-89h-455v89z" />
    <glyph glyph-name="question" unicode="?" horiz-adv-x="350" 
d="M111 507h-111v63q0 31 11.5 58.5t31.5 48.5t46.5 34t57.5 15v-111q-14 -4 -25 -15t-11 -31v-62zM280 668q10 -14 17 -26.5t11 -26.5t5.5 -31.5t1.5 -40.5q0 -26 -1 -44.5t-3 -31.5t-5 -22.5t-8 -17.5l-69 -118q-7 -11 -11.5 -23t-4.5 -26v-84h-111v97q0 43 26 83l64 104
q12 21 12 56v53q0 17 -10.5 30t-26.5 16v111q35 -2 64 -17t49 -41zM102 111h111v-111h-111v111z" />
    <glyph glyph-name="A" unicode="A" 
d="M303 0l-141 721h91l161 -721h-111zM233 254l20 -105h-111l-31 -149h-111l150 673l46 -233l-35 -186h72z" />
    <glyph glyph-name="B" unicode="B" horiz-adv-x="399" 
d="M110 721v-721h-110v721h110zM320 424q-9 -15 -21.5 -26t-25.5 -19q32 -17 48 -50q18 -35 18 -91v-40q0 -198 -196 -198h-12v111h19q29 0 46 8t25.5 23t10.5 36.5t2 47.5q0 27 -3 46.5t-12 32t-25 19t-43 6.5h-20v99h21q45 0 63.5 21t18.5 74q0 49 -20 70.5t-66 21.5h-17
v105h22q94 0 143 -57q43 -49 43 -128v-26q0 -54 -19 -86z" />
    <glyph glyph-name="C" unicode="C" horiz-adv-x="393" 
d="M228 184h111v-21q0 -32 -13 -63t-36 -55q-22 -23 -50.5 -36t-60.5 -15v111q7 1 15.5 5t16 11.5t12.5 19.5t5 31v12zM291 677q23 -24 35.5 -56t12.5 -69v-16h-111v10q0 24 -12.5 44.5t-36.5 24.5v111q68 -3 112 -49zM159 -6q-23 2 -50.5 9t-52.5 27q-56 45 -56 136v392
q0 35 12 66t35 54q45 45 112 48v-111q-25 -1 -37 -21q-11 -17 -11 -57v-364q0 -62 48 -68v-111z" />
    <glyph glyph-name="D" unicode="D" horiz-adv-x="386" 
d="M110 0h-110v721h110v-721zM291 670q48 -50 48 -138v-333q0 -99 -51 -150q-49 -49 -142 -49h-15v105h22q40 0 57.5 19.5t17.5 64.5v343q0 43 -16 63q-18 21 -59 21h-22v105h24q41 0 78 -13q35 -14 58 -38z" />
    <glyph glyph-name="E" unicode="E" horiz-adv-x="362" 
d="M310 721v-105h-179v105h179zM131 111h179v-111h-179v111zM110 311v-311h-110v721h110v-305h163v-105h-163z" />
    <glyph glyph-name="F" unicode="F" horiz-adv-x="368" 
d="M310 721v-105h-179v105h179zM110 311v-311h-110v721h110v-305h163v-105h-163z" />
    <glyph glyph-name="G" unicode="G" horiz-adv-x="413" 
d="M185 416h166v-244q0 -42 -14 -74.5t-37.5 -55t-53.5 -34.5t-61 -14v111q21 3 38 18.5t17 48.5v139h-55v105zM0 548q0 42 14 74.5t37 55t52.5 34.5t61.5 14v-111q-21 -2 -37.5 -17.5t-16.5 -49.5v-376q0 -33 16.5 -48.5t37.5 -18.5v-111q-32 2 -61.5 14t-52.5 34.5t-37 55
t-14 74.5v376v0zM185 726q31 -2 61 -14t53.5 -34.5t37.5 -55t14 -74.5v-14h-111v14q0 34 -17 49.5t-38 17.5v111v0z" />
    <glyph glyph-name="H" unicode="H" horiz-adv-x="415" 
d="M339 721v-721h-111v317h-97v99h97v305h111zM110 0h-110v721h110v-721z" />
    <glyph glyph-name="I" unicode="I" horiz-adv-x="170" 
d="M111 721v-721h-111v721h111z" />
    <glyph glyph-name="J" unicode="J" horiz-adv-x="425" 
d="M351 721v-549q0 -42 -14 -74.5t-37.5 -55t-53.5 -34.5t-61 -14v111q21 3 38 18.5t17 48.5v549h111zM165 -6q-32 2 -61.5 14t-52.5 34.5t-37 55t-14 74.5v12h111v-12q0 -33 16.5 -48.5t37.5 -18.5v-111z" />
    <glyph glyph-name="K" unicode="K" horiz-adv-x="433" 
d="M279 0l-157 421l138 300h111l-136 -295l161 -426h-117zM111 0h-111v721h111v-721z" />
    <glyph glyph-name="L" unicode="L" horiz-adv-x="344" 
d="M310 111v-111h-180v111h180zM110 0h-110v721h110v-721z" />
    <glyph glyph-name="M" unicode="M" horiz-adv-x="534" 
d="M469 721v-721h-111v417v-1v293l4 12h107zM337 367l-103 -251l-234 568v37h105l129 -344l103 277v-287zM0 631l111 -268v-363h-111v631z" />
    <glyph glyph-name="N" unicode="N" horiz-adv-x="428" 
d="M365 721v-721h-104l-1 3l-6 17v701h111zM234 76l-123 338v-414h-111v721h105l129 -358v-287z" />
    <glyph glyph-name="O" unicode="O" horiz-adv-x="410" 
d="M165 -6q-32 2 -61.5 14t-52.5 34.5t-37 55t-14 74.5v376q0 42 14 74.5t37 55t52.5 34.5t61.5 14v-111q-21 -2 -37.5 -17.5t-16.5 -49.5v-376q0 -33 16.5 -48.5t37.5 -18.5v-111zM185 726q31 -2 61 -14t53.5 -34.5t37.5 -55t14 -74.5v-376q0 -42 -14 -74.5t-37.5 -55
t-53.5 -34.5t-61 -14v111q21 3 38 18.5t17 48.5v376q0 34 -17 49.5t-38 17.5v111v0z" />
    <glyph glyph-name="P" unicode="P" horiz-adv-x="384" 
d="M292 669q26 -28 37 -65.5t11 -104.5q0 -46 -5.5 -80.5t-24.5 -64.5q-46 -76 -152 -76h-27v105h24q30 0 46 8.5t23.5 23.5t9 36t1.5 47q0 25 -1 46.5t-9 38.5q-15 33 -66 33h-28v105h26q46 0 77.5 -12.5t57.5 -39.5zM110 0h-110v721h110v-721z" />
    <glyph glyph-name="Q" unicode="Q" horiz-adv-x="422" 
d="M172 -6q-38 1 -69.5 14.5t-54.5 37.5t-35.5 56t-12.5 70v376q0 37 12 68.5t33.5 55.5t52 38t67.5 16v-111q-27 -3 -40.5 -21.5t-13.5 -45.5v-376q0 -17 4 -29zM351 172q0 -39 -14 -74t-44 -61l40 -101h-117l-22 59h-1l-43 114q11 -4 25 -4q31 0 48 18.5t17 48.5v376
q0 27 -13.5 45.5t-41.5 21.5v111q37 -2 67.5 -16t52.5 -38t34 -55.5t12 -68.5v-376z" />
    <glyph glyph-name="R" unicode="R" horiz-adv-x="405" 
d="M360 0h-117l-112 303v95h24q30 0 46 7t23.5 20.5t9 33.5t1.5 46q0 24 -1 43t-9 35q-14 33 -66 33h-28v105h26q46 0 77.5 -12.5t57.5 -39.5q13 -14 22 -28.5t15 -33.5t8.5 -43.5t2.5 -57.5q0 -23 -1 -41.5t-4.5 -34.5t-9.5 -31t-15 -30q-25 -42 -68 -60zM111 0h-111v721
h111v-721z" />
    <glyph glyph-name="S" unicode="S" horiz-adv-x="386" 
d="M225 392q28 -27 50.5 -51.5t38 -50.5t24 -55t8.5 -66q0 -38 -12.5 -69.5t-34 -54.5t-51.5 -36t-65 -14v105q26 3 42 21t16 46q0 22 -7 40.5t-20 36t-31 36t-39 39.5q-30 30 -54.5 56t-42 53t-27.5 56t-10 64q0 36 12 66.5t32.5 54t48.5 37.5t60 17v-100
q-21 -4 -33.5 -21.5t-12.5 -43.5q0 -24 8.5 -44.5t23 -40t34 -39.5t42.5 -42zM183 723q63 -2 105 -44t50 -117q1 -6 1 -12.5t1 -13.5h-106q-1 12 -4 26.5t-9 27t-15 22t-23 11.5v100zM163 -5q-45 3 -85.5 25t-61.5 69q-9 19 -12 46.5t-4 48.5h104q6 -77 59 -83v-106z" />
    <glyph glyph-name="T" unicode="T" horiz-adv-x="393" 
d="M347 721v-105h-347v105h347zM229 596v-596h-111v596h111z" />
    <glyph glyph-name="U" unicode="U" horiz-adv-x="390" 
d="M339 721v-557q0 -71 -50 -121q-46 -44 -110 -49v111q49 8 49 69v547h111zM159 -6q-31 2 -59 14.5t-50 34.5q-50 50 -50 121v557h111v-547q0 -61 48 -69v-111z" />
    <glyph glyph-name="V" unicode="V" horiz-adv-x="437" 
d="M206 302l69 419h116l-141 -691zM234 0h-87l-147 721h117z" />
    <glyph glyph-name="W" unicode="W" horiz-adv-x="613" 
d="M571 721l-101 -679l-55 307l39 372h117zM457 0h-97l-75 447l-70 -420l-37 327l64 367h85zM115 721l83 -721h-91l-107 721h115z" />
    <glyph glyph-name="X" unicode="X" horiz-adv-x="446" 
d="M405 0h-117l-86 232l-85 -232h-117l146 377l-135 344h117l74 -203l55 -140v-1zM213 547l64 174h117l-126 -315z" />
    <glyph glyph-name="Y" unicode="Y" horiz-adv-x="436" 
d="M252 250v-250h-110v305l-142 416h117zM207 481l70 240h117l-139 -408z" />
    <glyph glyph-name="Z" unicode="Z" horiz-adv-x="358" 
d="M311 634l-194 -529h195v-105h-312v95v1l228 625h84v-87h-1zM168 616h-158v105h196z" />
    <glyph glyph-name="backslash" unicode="\" horiz-adv-x="274" 
d="M88.0078 727h-87.9941l132.992 -733h88.9941z" />
    <glyph glyph-name="grave" unicode="`" horiz-adv-x="345" 
d="M62 863h112l71 -111h-79z" />
    <glyph glyph-name="a" unicode="a" 
d="M303 0l-141 721h91l161 -721h-111zM233 254l20 -105h-111l-31 -149h-111l150 673l46 -233l-35 -186h72z" />
    <glyph glyph-name="b" unicode="b" horiz-adv-x="399" 
d="M110 721v-721h-110v721h110zM320 424q-9 -15 -21.5 -26t-25.5 -19q32 -17 48 -50q18 -35 18 -91v-40q0 -198 -196 -198h-12v111h19q29 0 46 8t25.5 23t10.5 36.5t2 47.5q0 27 -3 46.5t-12 32t-25 19t-43 6.5h-20v99h21q45 0 63.5 21t18.5 74q0 49 -20 70.5t-66 21.5h-17
v105h22q94 0 143 -57q43 -49 43 -128v-26q0 -54 -19 -86z" />
    <glyph glyph-name="c" unicode="c" horiz-adv-x="393" 
d="M228 184h111v-21q0 -32 -13 -63t-36 -55q-22 -23 -50.5 -36t-60.5 -15v111q7 1 15.5 5t16 11.5t12.5 19.5t5 31v12zM291 677q23 -24 35.5 -56t12.5 -69v-16h-111v10q0 24 -12.5 44.5t-36.5 24.5v111q68 -3 112 -49zM159 -6q-23 2 -50.5 9t-52.5 27q-56 45 -56 136v392
q0 35 12 66t35 54q45 45 112 48v-111q-25 -1 -37 -21q-11 -17 -11 -57v-364q0 -62 48 -68v-111z" />
    <glyph glyph-name="d" unicode="d" horiz-adv-x="386" 
d="M110 0h-110v721h110v-721zM291 670q48 -50 48 -138v-333q0 -99 -51 -150q-49 -49 -142 -49h-15v105h22q40 0 57.5 19.5t17.5 64.5v343q0 43 -16 63q-18 21 -59 21h-22v105h24q41 0 78 -13q35 -14 58 -38z" />
    <glyph glyph-name="e" unicode="e" horiz-adv-x="362" 
d="M310 721v-105h-179v105h179zM131 111h179v-111h-179v111zM110 311v-311h-110v721h110v-305h163v-105h-163z" />
    <glyph glyph-name="f" unicode="f" horiz-adv-x="368" 
d="M310 721v-105h-179v105h179zM110 311v-311h-110v721h110v-305h163v-105h-163z" />
    <glyph glyph-name="g" unicode="g" horiz-adv-x="413" 
d="M185 416h166v-244q0 -42 -14 -74.5t-37.5 -55t-53.5 -34.5t-61 -14v111q21 3 38 18.5t17 48.5v139h-55v105zM0 548q0 42 14 74.5t37 55t52.5 34.5t61.5 14v-111q-21 -2 -37.5 -17.5t-16.5 -49.5v-376q0 -33 16.5 -48.5t37.5 -18.5v-111q-32 2 -61.5 14t-52.5 34.5t-37 55
t-14 74.5v376v0zM185 726q31 -2 61 -14t53.5 -34.5t37.5 -55t14 -74.5v-14h-111v14q0 34 -17 49.5t-38 17.5v111v0z" />
    <glyph glyph-name="h" unicode="h" horiz-adv-x="415" 
d="M339 721v-721h-111v317h-97v99h97v305h111zM110 0h-110v721h110v-721z" />
    <glyph glyph-name="i" unicode="i" horiz-adv-x="170" 
d="M111 721v-721h-111v721h111z" />
    <glyph glyph-name="j" unicode="j" horiz-adv-x="425" 
d="M351 721v-549q0 -42 -14 -74.5t-37.5 -55t-53.5 -34.5t-61 -14v111q21 3 38 18.5t17 48.5v549h111zM165 -6q-32 2 -61.5 14t-52.5 34.5t-37 55t-14 74.5v12h111v-12q0 -33 16.5 -48.5t37.5 -18.5v-111z" />
    <glyph glyph-name="k" unicode="k" horiz-adv-x="433" 
d="M279 0l-157 421l138 300h111l-136 -295l161 -426h-117zM111 0h-111v721h111v-721z" />
    <glyph glyph-name="l" unicode="l" horiz-adv-x="344" 
d="M310 111v-111h-180v111h180zM110 0h-110v721h110v-721z" />
    <glyph glyph-name="m" unicode="m" horiz-adv-x="534" 
d="M469 721v-721h-111v417v-1v293l4 12h107zM337 367l-103 -251l-234 568v37h105l129 -344l103 277v-287zM0 631l111 -268v-363h-111v631z" />
    <glyph glyph-name="n" unicode="n" horiz-adv-x="428" 
d="M365 721v-721h-104l-1 3l-6 17v701h111zM234 76l-123 338v-414h-111v721h105l129 -358v-287z" />
    <glyph glyph-name="o" unicode="o" horiz-adv-x="410" 
d="M165 -6q-32 2 -61.5 14t-52.5 34.5t-37 55t-14 74.5v376q0 42 14 74.5t37 55t52.5 34.5t61.5 14v-111q-21 -2 -37.5 -17.5t-16.5 -49.5v-376q0 -33 16.5 -48.5t37.5 -18.5v-111zM185 726q31 -2 61 -14t53.5 -34.5t37.5 -55t14 -74.5v-376q0 -42 -14 -74.5t-37.5 -55
t-53.5 -34.5t-61 -14v111q21 3 38 18.5t17 48.5v376q0 34 -17 49.5t-38 17.5v111v0z" />
    <glyph glyph-name="p" unicode="p" horiz-adv-x="384" 
d="M292 669q26 -28 37 -65.5t11 -104.5q0 -46 -5.5 -80.5t-24.5 -64.5q-46 -76 -152 -76h-27v105h24q30 0 46 8.5t23.5 23.5t9 36t1.5 47q0 25 -1 46.5t-9 38.5q-15 33 -66 33h-28v105h26q46 0 77.5 -12.5t57.5 -39.5zM110 0h-110v721h110v-721z" />
    <glyph glyph-name="q" unicode="q" horiz-adv-x="422" 
d="M172 -6q-38 1 -69.5 14.5t-54.5 37.5t-35.5 56t-12.5 70v376q0 37 12 68.5t33.5 55.5t52 38t67.5 16v-111q-27 -3 -40.5 -21.5t-13.5 -45.5v-376q0 -17 4 -29zM351 172q0 -39 -14 -74t-44 -61l40 -101h-117l-22 59h-1l-43 114q11 -4 25 -4q31 0 48 18.5t17 48.5v376
q0 27 -13.5 45.5t-41.5 21.5v111q37 -2 67.5 -16t52.5 -38t34 -55.5t12 -68.5v-376z" />
    <glyph glyph-name="r" unicode="r" horiz-adv-x="405" 
d="M360 0h-117l-112 303v95h24q30 0 46 7t23.5 20.5t9 33.5t1.5 46q0 24 -1 43t-9 35q-14 33 -66 33h-28v105h26q46 0 77.5 -12.5t57.5 -39.5q13 -14 22 -28.5t15 -33.5t8.5 -43.5t2.5 -57.5q0 -23 -1 -41.5t-4.5 -34.5t-9.5 -31t-15 -30q-25 -42 -68 -60zM111 0h-111v721
h111v-721z" />
    <glyph glyph-name="s" unicode="s" horiz-adv-x="386" 
d="M225 392q28 -27 50.5 -51.5t38 -50.5t24 -55t8.5 -66q0 -38 -12.5 -69.5t-34 -54.5t-51.5 -36t-65 -14v105q26 3 42 21t16 46q0 22 -7 40.5t-20 36t-31 36t-39 39.5q-30 30 -54.5 56t-42 53t-27.5 56t-10 64q0 36 12 66.5t32.5 54t48.5 37.5t60 17v-100
q-21 -4 -33.5 -21.5t-12.5 -43.5q0 -24 8.5 -44.5t23 -40t34 -39.5t42.5 -42zM183 723q63 -2 105 -44t50 -117q1 -6 1 -12.5t1 -13.5h-106q-1 12 -4 26.5t-9 27t-15 22t-23 11.5v100zM163 -5q-45 3 -85.5 25t-61.5 69q-9 19 -12 46.5t-4 48.5h104q6 -77 59 -83v-106z" />
    <glyph glyph-name="t" unicode="t" horiz-adv-x="393" 
d="M347 721v-105h-347v105h347zM229 596v-596h-111v596h111z" />
    <glyph glyph-name="u" unicode="u" horiz-adv-x="390" 
d="M339 721v-557q0 -71 -50 -121q-46 -44 -110 -49v111q49 8 49 69v547h111zM159 -6q-31 2 -59 14.5t-50 34.5q-50 50 -50 121v557h111v-547q0 -61 48 -69v-111z" />
    <glyph glyph-name="v" unicode="v" horiz-adv-x="437" 
d="M206 302l69 419h116l-141 -691zM234 0h-87l-147 721h117z" />
    <glyph glyph-name="w" unicode="w" horiz-adv-x="613" 
d="M571 721l-101 -679l-55 307l39 372h117zM457 0h-97l-75 447l-70 -420l-37 327l64 367h85zM115 721l83 -721h-91l-107 721h115z" />
    <glyph glyph-name="x" unicode="x" horiz-adv-x="446" 
d="M405 0h-117l-86 232l-85 -232h-117l146 377l-135 344h117l74 -203l55 -140v-1zM213 547l64 174h117l-126 -315z" />
    <glyph glyph-name="y" unicode="y" horiz-adv-x="436" 
d="M252 250v-250h-110v305l-142 416h117zM207 481l70 240h117l-139 -408z" />
    <glyph glyph-name="z" unicode="z" horiz-adv-x="358" 
d="M311 634l-194 -529h195v-105h-312v95v1l228 625h84v-87h-1zM168 616h-158v105h196z" />
    <glyph glyph-name="dieresis" unicode="&#xa8;" horiz-adv-x="345" 
d="M138 752h-99v111h99v-111zM300 752h-99v111h99v-111z" />
    <glyph glyph-name="acute" unicode="&#xb4;" horiz-adv-x="323" 
d="M245.004 863h-111.993l-70.9961 -111h78.9951z" />
    <glyph glyph-name="Agrave" unicode="&#xc0;" 
d="M303 0l-141 721h91l161 -721h-111zM233 254l20 -105h-111l-31 -149h-111l150 673l46 -233l-35 -186h72zM62 863h112l71 -111h-79z" />
    <glyph glyph-name="Aacute" unicode="&#xc1;" 
d="M303 0l-141 721h91l161 -721h-111zM233 254l20 -105h-111l-31 -149h-111l150 673l46 -233l-35 -186h72zM345.004 863h-111.993l-70.9961 -111h78.9951z" />
    <glyph glyph-name="Acircumflex" unicode="&#xc2;" 
d="M303 0l-141 721h91l161 -721h-111zM233 254l20 -105h-111l-31 -149h-111l150 673l46 -233l-35 -186h72zM248 752l-53 51l-53 -51h-88l110 111h62l111 -111h-89z" />
    <glyph glyph-name="Atilde" unicode="&#xc3;" 
 />
    <glyph glyph-name="Adieresis" unicode="&#xc4;" 
d="M303 0l-141 721h91l161 -721h-111zM233 254l20 -105h-111l-31 -149h-111l150 673l46 -233l-35 -186h72zM168 752h-99v111h99v-111zM330 752h-99v111h99v-111z" />
    <glyph glyph-name="Aring" unicode="&#xc5;" horiz-adv-x="440" 
d="M233 254l20 -105h-111l-31 -149h-111l151 673l45 -233l-34 -186h71zM414 0h-111l-138 705q-21 11 -34.5 32t-13.5 47q0 38 26.5 64t63.5 26t63.5 -26t26.5 -64q0 -34 -24 -60l-13 60q0 23 -15.5 38t-37.5 15t-37.5 -15t-15.5 -38q0 -22 15.5 -37t37.5 -15q24 0 40 18z
" />
    <glyph glyph-name="AE" unicode="&#xc6;" horiz-adv-x="644" 
d="M423 111h174v-111h-174v111zM204 721h68v-105v0l-90 -358h90v-105h-116l-39 -153h-117zM597 721v-105h-174v105h174zM403 311v-311h-111v721h111v-305h168v-105h-168z" />
    <glyph glyph-name="Ccedilla" unicode="&#xc7;" horiz-adv-x="397" 
d="M289 672q48 -50 48 -125v-44h-110v38q0 24 -12.5 44t-36.5 25v111q67 -3 111 -49zM227 206h110v-48q0 -29 -10 -57t-28 -51q-39 -47 -97 -59q-21 -33 -25 -40q-3 -5 -2 -6h13q47 0 70 -27q13 -14 16 -28.5t3 -23.5q0 -47 -43 -73q-35 -22 -84 -22q-29 0 -53.5 6.5
t-41.5 12.5l-4 2l21 50l3 -2q15 -5 31 -10t33 -5q7 0 16 1.5t16.5 5t12.5 11t5 19.5q0 16 -13 25t-28 9q-20 0 -38 -7l-2 -1l-20 23l31 52q5 8 8.5 14t5.5 9l81 136q5 8 9 18.5t4 26.5v39zM115 -5q-17 5 -34.5 13.5t-32.5 22.5q-49 45 -49 130v392q0 73 47 120q21 22 50 34
t62 14v-111q-26 -3 -37 -21q-12 -18 -12 -57v-364q0 -69 58 -69q2 0 4.5 0.5t6.5 0.5z" />
    <glyph glyph-name="Egrave" unicode="&#xc8;" horiz-adv-x="362" 
d="M310 721v-105h-179v105h179zM131 111h179v-111h-179v111zM110 311v-311h-110v721h110v-305h163v-105h-163zM62 863h112l71 -111h-79z" />
    <glyph glyph-name="Eacute" unicode="&#xc9;" horiz-adv-x="362" 
d="M310 721v-105h-179v105h179zM131 111h179v-111h-179v111zM110 311v-311h-110v721h110v-305h163v-105h-163zM245.004 863h-111.993l-70.9961 -111h78.9951z" />
    <glyph glyph-name="Ecircumflex" unicode="&#xca;" horiz-adv-x="362" 
d="M310 721v-105h-179v105h179zM131 111h179v-111h-179v111zM110 311v-311h-110v721h110v-305h163v-105h-163zM209 752l-53 51l-53 -51h-88l110 111h62l111 -111h-89z" />
    <glyph glyph-name="Edieresis" unicode="&#xcb;" horiz-adv-x="362" 
d="M310 721v-105h-179v105h179zM131 111h179v-111h-179v111zM110 311v-311h-110v721h110v-305h163v-105h-163zM129 752h-99v111h99v-111zM291 752h-99v111h99v-111z" />
    <glyph glyph-name="Igrave" unicode="&#xcc;" horiz-adv-x="170" 
d="M111 721v-721h-111v721h111zM-68 863h112l71 -111h-79z" />
    <glyph glyph-name="Iacute" unicode="&#xcd;" horiz-adv-x="170" 
d="M111 721v-721h-111v721h111zM185.004 863h-111.993l-70.9961 -111h78.9951z" />
    <glyph glyph-name="Icircumflex" unicode="&#xce;" horiz-adv-x="170" 
d="M111 721v-721h-111v721h111zM109 752l-53 51l-53 -51h-88l110 111h62l111 -111h-89z" />
    <glyph glyph-name="Idieresis" unicode="&#xcf;" horiz-adv-x="170" 
d="M111 721v-721h-111v721h111zM29 752h-99v111h99v-111zM191 752h-99v111h99v-111z" />
    <glyph glyph-name="Ograve" unicode="&#xd2;" horiz-adv-x="410" 
d="M165 -6q-32 2 -61.5 14t-52.5 34.5t-37 55t-14 74.5v376q0 42 14 74.5t37 55t52.5 34.5t61.5 14v-111q-21 -2 -37.5 -17.5t-16.5 -49.5v-376q0 -33 16.5 -48.5t37.5 -18.5v-111zM185 726q31 -2 61 -14t53.5 -34.5t37.5 -55t14 -74.5v-376q0 -42 -14 -74.5t-37.5 -55
t-53.5 -34.5t-61 -14v111q21 3 38 18.5t17 48.5v376q0 34 -17 49.5t-38 17.5v111v0zM53 863h112l71 -111h-79z" />
    <glyph glyph-name="Oacute" unicode="&#xd3;" horiz-adv-x="410" 
d="M165 -6q-32 2 -61.5 14t-52.5 34.5t-37 55t-14 74.5v376q0 42 14 74.5t37 55t52.5 34.5t61.5 14v-111q-21 -2 -37.5 -17.5t-16.5 -49.5v-376q0 -33 16.5 -48.5t37.5 -18.5v-111zM185 726q31 -2 61 -14t53.5 -34.5t37.5 -55t14 -74.5v-376q0 -42 -14 -74.5t-37.5 -55
t-53.5 -34.5t-61 -14v111q21 3 38 18.5t17 48.5v376q0 34 -17 49.5t-38 17.5v111v0zM315.004 863h-111.993l-70.9961 -111h78.9951z" />
    <glyph glyph-name="Ocircumflex" unicode="&#xd4;" horiz-adv-x="410" 
d="M165 -6q-32 2 -61.5 14t-52.5 34.5t-37 55t-14 74.5v376q0 42 14 74.5t37 55t52.5 34.5t61.5 14v-111q-21 -2 -37.5 -17.5t-16.5 -49.5v-376q0 -33 16.5 -48.5t37.5 -18.5v-111zM185 726q31 -2 61 -14t53.5 -34.5t37.5 -55t14 -74.5v-376q0 -42 -14 -74.5t-37.5 -55
t-53.5 -34.5t-61 -14v111q21 3 38 18.5t17 48.5v376q0 34 -17 49.5t-38 17.5v111v0zM228 752l-53 51l-53 -51h-88l110 111h62l111 -111h-89z" />
    <glyph glyph-name="Odieresis" unicode="&#xd6;" horiz-adv-x="410" 
d="M165 -6q-32 2 -61.5 14t-52.5 34.5t-37 55t-14 74.5v376q0 42 14 74.5t37 55t52.5 34.5t61.5 14v-111q-21 -2 -37.5 -17.5t-16.5 -49.5v-376q0 -33 16.5 -48.5t37.5 -18.5v-111zM185 726q31 -2 61 -14t53.5 -34.5t37.5 -55t14 -74.5v-376q0 -42 -14 -74.5t-37.5 -55
t-53.5 -34.5t-61 -14v111q21 3 38 18.5t17 48.5v376q0 34 -17 49.5t-38 17.5v111v0zM145 752h-99v111h99v-111zM307 752h-99v111h99v-111z" />
    <glyph glyph-name="Oslash" unicode="&#xd8;" horiz-adv-x="408" 
d="M323 649q13 -20 20.5 -45t7.5 -56v-376q0 -44 -15.5 -77t-40 -55.5t-56 -34t-64.5 -11.5q-32 0 -61 10l38 104q10 -3 23 -3q24 0 44.5 14.5t20.5 52.5v245l-151 -423h-89l28 77q-28 42 -28 101v376q0 44 15 77.5t40 56t56 34t64 11.5q15 0 29.5 -2.5t28.5 -7.5l-38 -103
q-5 1 -10 1.5t-10 0.5q-23 0 -43.5 -15t-20.5 -53v-245l151 424h89z" />
    <glyph glyph-name="Ugrave" unicode="&#xd9;" horiz-adv-x="390" 
d="M339 721v-557q0 -71 -50 -121q-46 -44 -110 -49v111q49 8 49 69v547h111zM159 -6q-31 2 -59 14.5t-50 34.5q-50 50 -50 121v557h111v-547q0 -61 48 -69v-111zM53 863h112l71 -111h-79z" />
    <glyph glyph-name="Uacute" unicode="&#xda;" horiz-adv-x="390" 
d="M339 721v-557q0 -71 -50 -121q-46 -44 -110 -49v111q49 8 49 69v547h111zM159 -6q-31 2 -59 14.5t-50 34.5q-50 50 -50 121v557h111v-547q0 -61 48 -69v-111zM275.004 863h-111.993l-70.9961 -111h78.9951z" />
    <glyph glyph-name="Ucircumflex" unicode="&#xdb;" horiz-adv-x="390" 
d="M339 721v-557q0 -71 -50 -121q-46 -44 -110 -49v111q49 8 49 69v547h111zM159 -6q-31 2 -59 14.5t-50 34.5q-50 50 -50 121v557h111v-547q0 -61 48 -69v-111zM219 752l-53 51l-53 -51h-88l110 111h62l111 -111h-89z" />
    <glyph glyph-name="Udieresis" unicode="&#xdc;" horiz-adv-x="390" 
d="M339 721v-557q0 -71 -50 -121q-46 -44 -110 -49v111q49 8 49 69v547h111zM159 -6q-31 2 -59 14.5t-50 34.5q-50 50 -50 121v557h111v-547q0 -61 48 -69v-111zM138 752h-99v111h99v-111zM300 752h-99v111h99v-111z" />
    <glyph glyph-name="agrave" unicode="&#xe0;" 
d="M303 0l-141 721h91l161 -721h-111zM233 254l20 -105h-111l-31 -149h-111l150 673l46 -233l-35 -186h72zM62 863h112l71 -111h-79z" />
    <glyph glyph-name="aacute" unicode="&#xe1;" 
d="M303 0l-141 721h91l161 -721h-111zM233 254l20 -105h-111l-31 -149h-111l150 673l46 -233l-35 -186h72zM345.004 863h-111.993l-70.9961 -111h78.9951z" />
    <glyph glyph-name="acircumflex" unicode="&#xe2;" 
d="M303 0l-141 721h91l161 -721h-111zM233 254l20 -105h-111l-31 -149h-111l150 673l46 -233l-35 -186h72zM248 752l-53 51l-53 -51h-88l110 111h62l111 -111h-89z" />
    <glyph glyph-name="atilde" unicode="&#xe3;" horiz-adv-x="389" 
 />
    <glyph glyph-name="adieresis" unicode="&#xe4;" 
d="M303 0l-141 721h91l161 -721h-111zM233 254l20 -105h-111l-31 -149h-111l150 673l46 -233l-35 -186h72zM168 752h-99v111h99v-111zM330 752h-99v111h99v-111z" />
    <glyph glyph-name="aring" unicode="&#xe5;" horiz-adv-x="440" 
d="M233 254l20 -105h-111l-31 -149h-111l151 673l45 -233l-34 -186h71zM414 0h-111l-138 705q-21 11 -34.5 32t-13.5 47q0 38 26.5 64t63.5 26t63.5 -26t26.5 -64q0 -34 -24 -60l-13 60q0 23 -15.5 38t-37.5 15t-37.5 -15t-15.5 -38q0 -22 15.5 -37t37.5 -15q24 0 40 18z
" />
    <glyph glyph-name="ae" unicode="&#xe6;" horiz-adv-x="644" 
d="M423 111h174v-111h-174v111zM204 721h68v-105v0l-90 -358h90v-105h-116l-39 -153h-117zM597 721v-105h-174v105h174zM403 311v-311h-111v721h111v-305h168v-105h-168z" />
    <glyph glyph-name="ccedilla" unicode="&#xe7;" horiz-adv-x="397" 
d="M289 672q48 -50 48 -125v-44h-110v38q0 24 -12.5 44t-36.5 25v111q67 -3 111 -49zM227 206h110v-48q0 -29 -10 -57t-28 -51q-39 -47 -97 -59q-21 -33 -25 -40q-3 -5 -2 -6h13q47 0 70 -27q13 -14 16 -28.5t3 -23.5q0 -47 -43 -73q-35 -22 -84 -22q-29 0 -53.5 6.5
t-41.5 12.5l-4 2l21 50l3 -2q15 -5 31 -10t33 -5q7 0 16 1.5t16.5 5t12.5 11t5 19.5q0 16 -13 25t-28 9q-20 0 -38 -7l-2 -1l-20 23l31 52q5 8 8.5 14t5.5 9l81 136q5 8 9 18.5t4 26.5v39zM115 -5q-17 5 -34.5 13.5t-32.5 22.5q-49 45 -49 130v392q0 73 47 120q21 22 50 34
t62 14v-111q-26 -3 -37 -21q-12 -18 -12 -57v-364q0 -69 58 -69q2 0 4.5 0.5t6.5 0.5z" />
    <glyph glyph-name="egrave" unicode="&#xe8;" horiz-adv-x="362" 
d="M310 721v-105h-179v105h179zM131 111h179v-111h-179v111zM110 311v-311h-110v721h110v-305h163v-105h-163zM62 863h112l71 -111h-79z" />
    <glyph glyph-name="eacute" unicode="&#xe9;" horiz-adv-x="362" 
d="M310 721v-105h-179v105h179zM131 111h179v-111h-179v111zM110 311v-311h-110v721h110v-305h163v-105h-163zM245.004 863h-111.993l-70.9961 -111h78.9951z" />
    <glyph glyph-name="ecircumflex" unicode="&#xea;" horiz-adv-x="362" 
d="M310 721v-105h-179v105h179zM131 111h179v-111h-179v111zM110 311v-311h-110v721h110v-305h163v-105h-163zM209 752l-53 51l-53 -51h-88l110 111h62l111 -111h-89z" />
    <glyph glyph-name="edieresis" unicode="&#xeb;" horiz-adv-x="362" 
d="M310 721v-105h-179v105h179zM131 111h179v-111h-179v111zM110 311v-311h-110v721h110v-305h163v-105h-163zM129 752h-99v111h99v-111zM291 752h-99v111h99v-111z" />
    <glyph glyph-name="igrave" unicode="&#xec;" horiz-adv-x="170" 
d="M111 721v-721h-111v721h111zM-68 863h112l71 -111h-79z" />
    <glyph glyph-name="iacute" unicode="&#xed;" horiz-adv-x="170" 
d="M111 721v-721h-111v721h111zM185.004 863h-111.993l-70.9961 -111h78.9951z" />
    <glyph glyph-name="icircumflex" unicode="&#xee;" horiz-adv-x="170" 
d="M111 721v-721h-111v721h111zM109 752l-53 51l-53 -51h-88l110 111h62l111 -111h-89z" />
    <glyph glyph-name="idieresis" unicode="&#xef;" horiz-adv-x="170" 
d="M111 721v-721h-111v721h111zM29 752h-99v111h99v-111zM191 752h-99v111h99v-111z" />
    <glyph glyph-name="ograve" unicode="&#xf2;" horiz-adv-x="410" 
d="M165 -6q-32 2 -61.5 14t-52.5 34.5t-37 55t-14 74.5v376q0 42 14 74.5t37 55t52.5 34.5t61.5 14v-111q-21 -2 -37.5 -17.5t-16.5 -49.5v-376q0 -33 16.5 -48.5t37.5 -18.5v-111zM185 726q31 -2 61 -14t53.5 -34.5t37.5 -55t14 -74.5v-376q0 -42 -14 -74.5t-37.5 -55
t-53.5 -34.5t-61 -14v111q21 3 38 18.5t17 48.5v376q0 34 -17 49.5t-38 17.5v111v0zM53 863h112l71 -111h-79z" />
    <glyph glyph-name="oacute" unicode="&#xf3;" horiz-adv-x="410" 
d="M165 -6q-32 2 -61.5 14t-52.5 34.5t-37 55t-14 74.5v376q0 42 14 74.5t37 55t52.5 34.5t61.5 14v-111q-21 -2 -37.5 -17.5t-16.5 -49.5v-376q0 -33 16.5 -48.5t37.5 -18.5v-111zM185 726q31 -2 61 -14t53.5 -34.5t37.5 -55t14 -74.5v-376q0 -42 -14 -74.5t-37.5 -55
t-53.5 -34.5t-61 -14v111q21 3 38 18.5t17 48.5v376q0 34 -17 49.5t-38 17.5v111v0zM315.004 863h-111.993l-70.9961 -111h78.9951z" />
    <glyph glyph-name="ocircumflex" unicode="&#xf4;" horiz-adv-x="410" 
d="M165 -6q-32 2 -61.5 14t-52.5 34.5t-37 55t-14 74.5v376q0 42 14 74.5t37 55t52.5 34.5t61.5 14v-111q-21 -2 -37.5 -17.5t-16.5 -49.5v-376q0 -33 16.5 -48.5t37.5 -18.5v-111zM185 726q31 -2 61 -14t53.5 -34.5t37.5 -55t14 -74.5v-376q0 -42 -14 -74.5t-37.5 -55
t-53.5 -34.5t-61 -14v111q21 3 38 18.5t17 48.5v376q0 34 -17 49.5t-38 17.5v111v0zM228 752l-53 51l-53 -51h-88l110 111h62l111 -111h-89z" />
    <glyph glyph-name="odieresis" unicode="&#xf6;" horiz-adv-x="410" 
d="M165 -6q-32 2 -61.5 14t-52.5 34.5t-37 55t-14 74.5v376q0 42 14 74.5t37 55t52.5 34.5t61.5 14v-111q-21 -2 -37.5 -17.5t-16.5 -49.5v-376q0 -33 16.5 -48.5t37.5 -18.5v-111zM185 726q31 -2 61 -14t53.5 -34.5t37.5 -55t14 -74.5v-376q0 -42 -14 -74.5t-37.5 -55
t-53.5 -34.5t-61 -14v111q21 3 38 18.5t17 48.5v376q0 34 -17 49.5t-38 17.5v111v0zM145 752h-99v111h99v-111zM307 752h-99v111h99v-111z" />
    <glyph glyph-name="oslash" unicode="&#xf8;" horiz-adv-x="408" 
d="M323 649q13 -20 20.5 -45t7.5 -56v-376q0 -44 -15.5 -77t-40 -55.5t-56 -34t-64.5 -11.5q-32 0 -61 10l38 104q10 -3 23 -3q24 0 44.5 14.5t20.5 52.5v245l-151 -423h-89l28 77q-28 42 -28 101v376q0 44 15 77.5t40 56t56 34t64 11.5q15 0 29.5 -2.5t28.5 -7.5l-38 -103
q-5 1 -10 1.5t-10 0.5q-23 0 -43.5 -15t-20.5 -53v-245l151 424h89z" />
    <glyph glyph-name="ugrave" unicode="&#xf9;" horiz-adv-x="390" 
d="M339 721v-557q0 -71 -50 -121q-46 -44 -110 -49v111q49 8 49 69v547h111zM159 -6q-31 2 -59 14.5t-50 34.5q-50 50 -50 121v557h111v-547q0 -61 48 -69v-111zM53 863h112l71 -111h-79z" />
    <glyph glyph-name="uacute" unicode="&#xfa;" horiz-adv-x="390" 
d="M339 721v-557q0 -71 -50 -121q-46 -44 -110 -49v111q49 8 49 69v547h111zM159 -6q-31 2 -59 14.5t-50 34.5q-50 50 -50 121v557h111v-547q0 -61 48 -69v-111zM275.004 863h-111.993l-70.9961 -111h78.9951z" />
    <glyph glyph-name="ucircumflex" unicode="&#xfb;" horiz-adv-x="390" 
d="M339 721v-557q0 -71 -50 -121q-46 -44 -110 -49v111q49 8 49 69v547h111zM159 -6q-31 2 -59 14.5t-50 34.5q-50 50 -50 121v557h111v-547q0 -61 48 -69v-111zM219 752l-53 51l-53 -51h-88l110 111h62l111 -111h-89z" />
    <glyph glyph-name="udieresis" unicode="&#xfc;" horiz-adv-x="390" 
d="M339 721v-557q0 -71 -50 -121q-46 -44 -110 -49v111q49 8 49 69v547h111zM159 -6q-31 2 -59 14.5t-50 34.5q-50 50 -50 121v557h111v-547q0 -61 48 -69v-111zM138 752h-99v111h99v-111zM300 752h-99v111h99v-111z" />
    <glyph glyph-name="ydieresis" unicode="&#xff;" horiz-adv-x="436" 
d="M252 250v-250h-110v305l-142 416h117zM207 481l70 240h117l-139 -408zM168 752h-99v111h99v-111zM330 752h-99v111h99v-111z" />
    <glyph glyph-name="dotlessi" unicode="&#x131;" horiz-adv-x="170" 
d="M111 721v-721h-111v721h111z" />
    <glyph glyph-name="OE" unicode="&#x152;" horiz-adv-x="595" 
d="M0 498q0 46 7 90.5t40 79.5q29 30 62 41t73 11h27v-105h-29q-27 0 -42 -8.5t-22.5 -22.5t-9 -33.5t-1.5 -41.5v-300q0 -34 3.5 -54.5t15 -32t32 -15t53.5 -3.5v-104h-28q-48 0 -86.5 17t-64.5 59q-21 33 -25.5 70t-4.5 75v277v0zM361 111h174v-111h-174v111zM535 721
v-105h-174v105h174zM509 311h-168v-311h-111v721h111v-305h168v-105z" />
    <glyph glyph-name="oe" unicode="&#x153;" horiz-adv-x="595" 
d="M0 498q0 46 7 90.5t40 79.5q29 30 62 41t73 11h27v-105h-29q-27 0 -42 -8.5t-22.5 -22.5t-9 -33.5t-1.5 -41.5v-300q0 -34 3.5 -54.5t15 -32t32 -15t53.5 -3.5v-104h-28q-48 0 -86.5 17t-64.5 59q-21 33 -25.5 70t-4.5 75v277v0zM361 111h174v-111h-174v111zM535 721
v-105h-174v105h174zM509 311h-168v-311h-111v721h111v-305h168v-105z" />
    <glyph glyph-name="Ydieresis" unicode="&#x178;" horiz-adv-x="436" 
d="M252 250v-250h-110v305l-142 416h117zM207 481l70 240h117l-139 -408zM168 752h-99v111h99v-111zM330 752h-99v111h99v-111z" />
    <glyph glyph-name="circumflex" unicode="&#x2c6;" horiz-adv-x="345" 
d="M228 752l-53 51l-53 -51h-88l110 111h62l111 -111h-89z" />
    <glyph glyph-name="endash" unicode="&#x2013;" horiz-adv-x="520" 
d="M384 303h-384v105h384v-105z" />
    <glyph glyph-name="emdash" unicode="&#x2014;" horiz-adv-x="690" 
d="M598 303h-598v105h598v-105z" />
    <glyph glyph-name="minus" unicode="&#x2212;" horiz-adv-x="520" 
d="M413 303h-413v105h413v-105z" />
    </font>
</defs>
</svg>
