<?xml version="1.0" encoding="UTF-8"?>
<svg width="74px" height="74px" viewBox="0 0 74 74" version="1.1" xmlns="http://www.w3.org/2000/svg" xmlns:xlink="http://www.w3.org/1999/xlink">
    <title>_003-hand@3x</title>
    <g id="Page-1" stroke="none" stroke-width="1" fill="none" fill-rule="evenodd">
        <g id="_003-hand" transform="translate(0.000000, 0.127000)" fill="#0A4479" fill-rule="nonzero">
            <path d="M34.007,49.452 C34.5630416,48.8958701 34.5629939,47.9942842 34.0068934,47.4382132 C33.4507929,46.8821421 32.5492071,46.8821421 31.9931066,47.4382132 C31.4370061,47.9942842 31.4369584,48.8958701 31.993,49.452 C32.549581,50.007111 33.450419,50.007111 34.007,49.452 L34.007,49.452 Z" id="Path_197"></path>
            <path d="M27.265,15.66 C27.265,24.3087792 34.2762208,31.32 42.925,31.32 C51.5737792,31.32 58.585,24.3087792 58.585,15.66 C58.585,7.01122082 51.5737792,0 42.925,0 C34.2803329,0.00991930656 27.2749193,7.01533286 27.265,15.66 Z M55.738,15.66 C55.7384045,20.8424657 52.6168737,25.5148574 47.8290158,27.4983814 C43.0411578,29.4819055 37.5298941,28.3859264 33.8651944,24.7215127 C30.2004948,21.0570991 29.1040856,15.5459209 31.0872359,10.7579082 C33.0703863,5.96989545 37.7425343,2.848 42.925,2.848 C49.9978361,2.8557148 55.7297332,8.5871645 55.738,15.66 L55.738,15.66 Z" id="Path_198"></path>
            <path d="M16.9,72.49 C17.4520104,73.0467669 18.350378,73.052133 18.909,72.502 L25.809,65.702 C26.9587877,64.5415126 27.3516709,62.8297199 26.823,61.284 L28.308,59.852 C29.1018726,59.0810325 30.1653735,58.6504653 31.272,58.652 L50.2,58.652 C53.5396503,58.6592254 56.7487304,57.3554131 59.137,55.021 C59.237,54.921 58.385,55.927 72.048,39.597 C74.0382218,37.1998025 73.7326129,33.6482606 71.3621241,31.6263007 C68.9916354,29.6043408 65.4363396,29.8626402 63.383,32.206 L54.983,40.84 C53.9008708,39.5046815 52.2757343,38.7266281 50.557,38.721 L34.679,38.721 C32.4212083,37.7764325 29.9974073,37.2926242 27.55,37.298 C20.695,37.298 14.709,40.464 11.496,46.398 C10.109509,46.1352144 8.68295891,46.5772651 7.688,47.578 L0.916,54.375 C0.363775559,54.930432 0.363775559,55.827568 0.916,56.383 L16.9,72.49 Z M27.55,40.147 C29.7065713,40.1408128 31.840826,40.5835336 33.817,41.447 C33.9969837,41.5260662 34.1914151,41.5669274 34.388,41.567 L50.555,41.567 C52.1273547,41.567 53.402,42.8416453 53.402,44.414 C53.402,45.9863547 52.1273547,47.261 50.555,47.261 L38.939,47.261 C38.1528227,47.261 37.5155,47.8983227 37.5155,48.6845 C37.5155,49.4706773 38.1528227,50.108 38.939,50.108 L50.555,50.108 C52.1957258,50.1103319 53.7574832,49.4038107 54.8389811,48.1699756 C55.920479,46.9361405 56.4162841,45.2952762 56.199,43.669 C64.325,35.316 65.471,34.142 65.52,34.083 C66.1732394,33.292762 67.2008199,32.9146352 68.2104712,33.0929663 C69.2201225,33.2712973 70.0559947,33.978559 70.3990006,34.9447602 C70.7420066,35.9109613 70.5391998,36.986959 69.868,37.762 L57.1,53.032 C55.2472935,54.8174159 52.7729751,55.8125222 50.2,55.807 L31.273,55.807 C29.4279582,55.804062 27.6546956,56.5216915 26.331,57.807 L25.121,58.975 L13.968,47.816 C16.575,42.928 21.466,40.147 27.55,40.147 Z M9.7,49.594 C10.168561,49.1232021 10.9008857,49.040125 11.463,49.394 C11.709,49.544 11.002,48.9 23.794,61.674 C24.3460348,62.2274502 24.3496029,63.1221644 23.802,63.68 L17.918,69.48 L3.93,55.38 L9.7,49.594 Z" id="Path_199"></path>
            <path d="M41.217,7.118 L41.217,8.786 C39.2524877,9.47703559 38.0727564,11.4841585 38.4246592,13.5367187 C38.776562,15.5892789 40.5574941,17.0888086 42.64,17.086 C43.4261773,17.086 44.0635,17.7233227 44.0635,18.5095 C44.0635,19.2956773 43.4261773,19.933 42.64,19.933 C41.896982,19.8589233 41.2227083,19.4659618 40.792,18.856 C40.469927,18.4495223 39.9523363,18.2502804 39.4408412,18.3358834 C38.929346,18.4214865 38.5048323,18.7783975 38.3326575,19.2675918 C38.1604827,19.756786 38.267874,20.3009041 38.613,20.688 C39.2927667,21.5332476 40.192387,22.1747461 41.213,22.542 L41.213,24.206 C41.213,24.9921773 41.8503227,25.6295 42.6365,25.6295 C43.4226773,25.6295 44.06,24.9921773 44.06,24.206 L44.06,22.533 C46.0245123,21.8419644 47.2042436,19.8348415 46.8523408,17.7822813 C46.500438,15.7297211 44.7195059,14.2301914 42.637,14.233 C41.8505465,14.233 41.213,13.5954535 41.213,12.809 C41.213,12.0225465 41.8505465,11.385 42.637,11.385 C43.2272633,11.4243955 43.7792708,11.6910797 44.177,12.129 C44.7452973,12.6533729 45.6282117,12.6283933 46.1659523,12.072728 C46.7036928,11.5170628 46.6997188,10.633804 46.157,10.083 C45.5657235,9.49209147 44.8475321,9.04373484 44.057,8.772 L44.057,7.118 C44.057,6.33182266 43.4196773,5.6945 42.6335,5.6945 C41.8473227,5.6945 41.21,6.33182266 41.21,7.118 L41.217,7.118 Z" id="Path_200"></path>
        </g>
    </g>
</svg>