<?xml version="1.0" encoding="UTF-8"?>
<svg width="55px" height="73px" viewBox="0 0 55 73" version="1.1" xmlns="http://www.w3.org/2000/svg" xmlns:xlink="http://www.w3.org/1999/xlink">
    <title>_008-flag@3x</title>
    <g id="Page-1" stroke="none" stroke-width="1" fill="none" fill-rule="evenodd">
        <g id="_008-flag" fill="#0A4479" fill-rule="nonzero">
            <path d="M47.1,15.709 L54.18,4.878 C54.8578231,3.88420356 54.822355,2.5678541 54.092,1.612 C53.2637887,0.556043324 51.982331,-0.0425396589 50.641,-1.40425865e-15 L21.014,-1.40425865e-15 C20.3711278,-0.0559017221 19.8018811,0.413282078 19.734,1.055 L19.734,7.891 L8.61,7.891 L8.61,5.564 C8.61,3.739 6.81,2.255 4.593,2.255 C2.376,2.255 0.576,3.74 0.576,5.564 L0.576,70.945 C0.684955436,71.5669554 1.22507319,72.0206794 1.8565,72.0206794 C2.48792681,72.0206794 3.02804456,71.5669554 3.137,70.945 L3.137,39.309 L6.05,39.309 L6.05,70.945 C6.15895544,71.5669554 6.69907319,72.0206794 7.3305,72.0206794 C7.96192681,72.0206794 8.50204456,71.5669554 8.611,70.945 L8.611,39.309 L18.278,39.309 C18.704315,39.3934695 19.1395525,39.2129351 19.3809152,38.8515162 C19.6222779,38.4900973 19.6222779,38.0189027 19.3809152,37.6574838 C19.1395525,37.2960649 18.704315,37.1155305 18.278,37.2 L8.61,37.2 L8.61,10 L29.31,10 L29.31,23.6 C29.4189554,24.2219554 29.9590732,24.6756794 30.5905,24.6756794 C31.2219268,24.6756794 31.7620446,24.2219554 31.871,23.6 L31.871,8.946 C31.8660059,8.65414695 31.7297147,8.38009522 31.5,8.2 L24.1,2.109 L50.637,2.109 C51.1241999,2.08816015 51.5908735,2.30656338 51.887,2.694 C52.1534913,3.03989812 52.1664187,3.51821242 51.919,3.878 L44.513,15.209 C44.308864,15.5110797 44.308864,15.9069203 44.513,16.209 L51.919,27.54 C52.1664187,27.8997876 52.1534913,28.3781019 51.887,28.724 C51.5908735,29.1114366 51.1241999,29.3298398 50.637,29.309 L40.167,29.309 C39.740685,29.2245305 39.3054475,29.4050649 39.0640848,29.7664838 C38.8227221,30.1279027 38.8227221,30.5990973 39.0640848,30.9605162 C39.3054475,31.3219351 39.740685,31.5024695 40.167,31.418 L50.637,31.418 C51.977602,31.459734 53.2581078,30.8612488 54.086,29.806 C54.816355,28.8501459 54.8518231,27.5337964 54.174,26.54 L47.1,15.709 Z M4.593,4.364 C5.32386864,4.30162047 5.97063768,4.83467187 6.049,5.564 L6.049,7.891 L3.136,7.891 L3.136,5.564 C3.21385585,4.83439906 3.86096031,4.30107121 4.592,4.364 L4.593,4.364 Z M6.049,37.2 L3.136,37.2 L3.136,10 L6.049,10 L6.049,37.2 Z M22.294,3.6 L27.502,7.89 L22.294,7.89 L22.294,3.6 Z" id="Path_219"></path>
            <path d="M32.161,40.988 L32.161,38.24 C34.4901189,37.6700111 36.0264774,35.4501108 35.7394184,33.0695059 C35.4523595,30.6889011 33.4323495,28.897836 31.0345,28.897836 C28.6366505,28.897836 26.6166405,30.6889011 26.3295816,33.0695059 C26.0425226,35.4501108 27.5788811,37.6700111 29.908,38.24 L29.908,40.988 C22.8806393,41.5913908 17.5766017,47.6247429 17.8785739,54.6714934 C18.1805462,61.7182438 23.9812824,67.2757264 31.0345,67.2757264 C38.0877176,67.2757264 43.8884538,61.7182438 44.1904261,54.6714934 C44.4923983,47.6247429 39.1883607,41.5913908 32.161,40.988 L32.161,40.988 Z M28.549,33.637 C28.549,32.6315069 29.1546945,31.725021 30.083649,31.3402355 C31.0126035,30.9554499 32.0818764,31.1681415 32.7928675,31.8791325 C33.5038585,32.5901236 33.7165501,33.6593965 33.3317645,34.588351 C32.946979,35.5173055 32.0404931,36.123 31.035,36.123 C29.6624772,36.1218971 28.5501029,35.0095228 28.549,33.637 Z M31.035,65.021 C26.6204261,65.021 22.640596,62.3615644 20.9514921,58.2829138 C19.2623882,54.2042632 20.1966937,49.5097219 23.3186979,46.3885759 C26.4407021,43.2674298 31.1355,42.334415 35.2136861,44.0246401 C39.2918722,45.7148652 41.9502135,49.6954263 41.9490004,54.11 C41.9401831,60.1338844 37.0578872,65.014391 31.034,65.021 L31.035,65.021 Z" id="Path_220"></path>
            <path d="M36.499,48.493 C36.2878099,48.2816518 36.0012797,48.1629044 35.7025,48.1629044 C35.4037203,48.1629044 35.1171901,48.2816518 34.906,48.493 L27.681,55.718 C27.3964379,56.002562 27.2853038,56.4173203 27.3894607,56.8060393 C27.4936176,57.1947583 27.7972417,57.4983824 28.1859607,57.6025393 C28.5746797,57.7066962 28.989438,57.5955621 29.274,57.311 L36.499,50.086 C36.7103482,49.8748099 36.8290956,49.5882797 36.8290956,49.2895 C36.8290956,48.9907203 36.7103482,48.7041901 36.499,48.493 L36.499,48.493 Z" id="Path_221"></path>
            <path d="M30.611,49.212 C31.2334249,49.212 31.738,48.7074249 31.738,48.085 L31.738,46.885 C31.7198507,46.2759161 31.2208543,45.7915671 30.6115,45.7915671 C30.0021457,45.7915671 29.5031493,46.2759161 29.485,46.885 L29.485,48.085 C29.485,48.7070346 29.9889656,49.2114481 30.611,49.212 Z" id="Path_222"></path>
            <path d="M30.611,59.001 C29.9885751,59.001 29.484,59.5055751 29.484,60.128 L29.484,61.328 C29.5021493,61.9370839 30.0011457,62.4214329 30.6105,62.4214329 C31.2198543,62.4214329 31.7188507,61.9370839 31.7370004,61.328 L31.7370004,60.128 C31.7372654,59.829193 31.6187507,59.5425335 31.407556,59.3311512 C31.1963613,59.1197689 30.9098071,59.001 30.611,59.001 Z" id="Path_223"></path>
            <path d="M37.615,52.98 C37.0059161,52.9981493 36.5215671,53.4971457 36.5215671,54.1065 C36.5215671,54.7158543 37.0059161,55.2148507 37.615,55.233 L38.815,55.233 C39.4240839,55.2148507 39.9084329,54.7158543 39.9084329,54.1065 C39.9084329,53.4971457 39.4240839,52.9981493 38.815,52.98 L37.615,52.98 Z" id="Path_224"></path>
            <path d="M23.626,52.98 L22.426,52.98 C22.0155371,52.9677692 21.6309093,53.1797637 21.4220656,53.5333365 C21.213222,53.8869094 21.213222,54.3260906 21.4220656,54.6796635 C21.6309093,55.0332363 22.0155371,55.2452308 22.426,55.233 L23.626,55.233 C24.0364629,55.2452308 24.4210907,55.0332363 24.6299344,54.6796635 C24.838778,54.3260906 24.838778,53.8869094 24.6299344,53.5333365 C24.4210907,53.1797637 24.0364629,52.9677692 23.626,52.98 L23.626,52.98 Z" id="Path_225"></path>
        </g>
    </g>
</svg>