<?xml version="1.0" encoding="UTF-8"?>
<svg width="43px" height="43px" viewBox="0 0 43 43" version="1.1" xmlns="http://www.w3.org/2000/svg" xmlns:xlink="http://www.w3.org/1999/xlink">
    <title>Expand@3x</title>
    <g id="Page-1" stroke="none" stroke-width="1" fill="none" fill-rule="evenodd">
        <g id="Expand" transform="translate(0.000000, 0.614000)" fill="#EAC277" fill-rule="nonzero">
            <path d="M42.283,4.78492683 L40.133,4.78492683 L40.133,3.39073171 C40.1226401,2.99545979 39.8018825,2.68337659 39.416,2.69312195 L37.266,2.69312195 L37.266,1.30609756 C37.2556401,0.910825648 36.9348825,0.598742443 36.549,0.608487805 L33.683,0.602119302 L33.683,0.602119302 C33.2971175,0.592596102 32.9763599,0.904679307 32.966,1.29995122 L32.966,2.69414634 L3.583,2.69414634 C1.65549919,2.64655017 0.0534257809,4.20479376 -8.8817842e-16,6.17912195 L-8.8817842e-16,38.2425366 C0.0545053397,40.2160567 1.65625807,41.7730724 3.583,41.7254634 L8.6,41.7254634 C8.98588248,41.7352088 9.30664011,41.4231256 9.317,41.0278537 L9.317,38.9442439 L42.283,38.9442439 C42.6688825,38.9539893 42.9896401,38.6419061 43,38.2466341 L43,5.48253659 C42.9896401,5.08726467 42.6688825,4.77518147 42.283,4.78492683 Z M35.833,6.87673171 L34.4,6.87673171 L34.4,5.48253659 L35.833,5.48253659 L35.833,6.87673171 Z M35.833,8.27092683 L35.833,23.6070732 L34.4,23.6070732 L34.4,8.27092683 L35.833,8.27092683 Z M35.8,25.0012683 L35.119,26.9793659 L34.441,24.9971707 L35.8,25.0012683 Z M35.836,2.00063415 L35.836,4.08526829 L34.4,4.08526829 L34.4,1.99653659 L35.836,2.00063415 Z M3.583,4.08526829 L32.967,4.08526829 L32.967,25.0012683 C32.9674504,25.0759314 32.9799524,25.1500041 33.004,25.2204878 L34.437,29.4030732 C34.5448597,29.692302 34.8157568,29.8833546 35.118,29.8833546 C35.4202432,29.8833546 35.6911403,29.692302 35.799,29.4030732 L37.232,25.2266341 C37.2555854,25.1560888 37.2674171,25.0819814 37.267,25.0074146 L37.267,4.08526829 L38.7,4.08526829 L38.7,34.7616585 L3.583,34.7616585 C2.81051287,34.762867 2.05810593,35.0138116 1.433,35.4787317 L1.433,6.17912195 C1.46354151,4.99331192 2.42535864,4.05661224 3.583,4.08526829 Z M41.567,37.5500488 L2.867,37.5500488 L2.867,38.9442439 L7.883,38.9442439 L7.883,40.338439 L3.583,40.338439 C2.82953723,40.3766484 2.11678439,39.9866177 1.72887154,39.3238277 C1.34095869,38.6610377 1.34095869,37.833255 1.72887154,37.170465 C2.11678439,36.507675 2.82953723,36.1176442 3.583,36.1558537 L39.417,36.1558537 C39.8028825,36.165599 40.1236401,35.8535158 40.134,35.4582439 L40.134,6.17912195 L41.567,6.17912195 L41.567,37.5500488 Z" id="Path_175"></path>
            <path d="M4.119,29.4409756 L7.061,29.4409756 L7.061,28.2352683 L4.708,28.2352683 L4.708,18.5906341 L7.062,18.5906341 L7.062,17.3849268 L4.708,17.3849268 L4.708,10.1506829 L11.77,10.1506829 L11.77,17.3849268 L9.416,17.3849268 L9.416,18.5906341 L15.889,18.5906341 L15.889,22.2077561 L17.066,22.2077561 L17.066,18.5906341 L19.42,18.5906341 L19.42,17.3849268 L12.947,17.3849268 L12.947,10.1506829 L23.539,10.1506829 L23.539,17.3849268 L21.774,17.3849268 L21.774,18.5906341 L23.539,18.5906341 L23.539,28.2362927 L17.066,28.2362927 L17.066,24.6181463 L15.889,24.6181463 L15.889,28.2352683 L9.416,28.2352683 L9.416,29.4409756 L24.131,29.4409756 C24.2869473,29.4409756 24.4365074,29.3775148 24.5467788,29.2645539 C24.6570502,29.1515929 24.719,28.998385 24.719,28.8386341 L24.719,9.54731707 C24.719,9.21465307 24.4557434,8.94497561 24.131,8.94497561 L4.119,8.94497561 C3.79425657,8.94497561 3.531,9.21465307 3.531,9.54731707 L3.531,28.8386341 C3.531,28.998385 3.59294982,29.1515929 3.70322121,29.2645539 C3.8134926,29.3775148 3.9630527,29.4409756 4.119,29.4409756 Z" id="Path_176"></path>
            <rect id="Rectangle_60" x="24.431" y="40.860878" width="16.673" height="1.13912195"></rect>
            <rect id="Rectangle_61" x="7.226" y="0" width="14.45" height="1.13912195"></rect>
            <rect id="Rectangle_62" x="20.771" y="40.860878" width="2.112" height="1.13912195"></rect>
        </g>
    </g>
</svg>